  0
SECTION
  2
HEADER
  9
$ANGBASE
 50
0
  9
$ANGDIR
 70
0
  9
$AUNITS
 70
0
  9
$AUPREC
 70
0
  9
$ATTMODE
 70
1
  9
$DWGCODEPAGE
  3
ansi_1252
  9
$TDCREATE
 40
2461272.9962731483
  9
$CECOLOR
 62
256
  9
$CELTSCALE
 40
1
  9
$CELWEIGHT
370
29
  9
$CLAYER
  8
VIP
  9
$CELTYPE
  6
ByLayer
  9
$CMLJUST
 70
0
  9
$CMLSCALE
 40
20
  9
$CMLSTYLE
  2
Standard
  9
$DIMSTYLE
  2
ISO-25
  9
$LWDISPLAY
290
0
  9
$EXTNAMES
290
0
  9
$HANDSEED
  5
107C
  9
$INSUNITS
 70
4
  9
$LUNITS
 70
2
  9
$LUPREC
 70
4
  9
$LTSCALE
 40
1
  9
$MEASUREMENT
 70
1
  9
$MIRRTEXT
 70
0
  9
$INSBASE
 10
0
 20
0
 30
0
  9
$SPLINESEGS
 70
8
  9
$PSLTSCALE
 70
1
  9
$PDMODE
 70
0
  9
$PDSIZE
 40
0
  9
$PLINEGEN
 70
0
  9
$SURFU
 70
6
  9
$SURFV
 70
6
  9
$TEXTSIZE
 40
2.5
  9
$TEXTSTYLE
  7
Standard
  9
$TDINDWG
 40
0.03364583333333333
  9
$TDUCREATE
 40
2461272.585524433
  9
$TDUUPDATE
 40
2461272.585524433
  9
$TDUPDATE
 40
2461273.076365741
  9
$ACADVER
  1
AC1032
  0
ENDSEC
  0
SECTION
  2
CLASSES
  0
CLASS
  1
ACDBDICTIONARYWDFLT
  2
AcDbDictionaryWithDefault
  3
ObjectDBX Classes
 90
0
 91
1
280
0
281
0
  0
CLASS
  1
DICTIONARYVAR
  2
AcDbDictionaryVar
  3
ObjectDBX Classes
 90
0
 91
11
280
0
281
0
  0
CLASS
  1
TABLESTYLE
  2
AcDbTableStyle
  3
ObjectDBX Classes
 90
4095
 91
1
280
0
281
0
  0
CLASS
  1
MATERIAL
  2
AcDbMaterial
  3
ObjectDBX Classes
 90
1153
 91
3
280
0
281
0
  0
CLASS
  1
VISUALSTYLE
  2
AcDbVisualStyle
  3
ObjectDBX Classes
 90
4095
 91
25
280
0
281
0
  0
CLASS
  1
SCALE
  2
AcDbScale
  3
ObjectDBX Classes
 90
1153
 91
19
280
0
281
0
  0
CLASS
  1
MLEADERSTYLE
  2
AcDbMLeaderStyle
  3
ACDB_MLEADERSTYLE_CLASS
 90
4095
 91
2
280
0
281
0
  0
CLASS
  1
CELLSTYLEMAP
  2
AcDbCellStyleMap
  3
ObjectDBX Classes
 90
1152
 91
0
280
0
281
0
  0
CLASS
  1
EXACXREFPANELOBJECT
  2
ExAcXREFPanelObject
  3
EXAC_ESW
 90
1025
 91
0
280
0
281
0
  0
CLASS
  1
NPOCOLLECTION
  2
AcDbImpNonPersistentObjectsCollection
  3
ObjectDBX Classes
 90
1153
 91
0
280
0
281
0
  0
CLASS
  1
LAYER_INDEX
  2
AcDbLayerIndex
  3
ObjectDBX Classes
 90
0
 91
0
280
0
281
0
  0
CLASS
  1
SPATIAL_INDEX
  2
AcDbSpatialIndex
  3
ObjectDBX Classes
 90
0
 91
0
280
0
281
0
  0
CLASS
  1
IDBUFFER
  2
AcDbIdBuffer
  3
ObjectDBX Classes
 90
0
 91
0
280
0
281
0
  0
CLASS
  1
ACDBSECTIONVIEWSTYLE
  2
AcDbSectionViewStyle
  3
ObjectDBX Classes
 90
1025
 91
0
280
0
281
0
  0
CLASS
  1
ACDBDETAILVIEWSTYLE
  2
AcDbDetailViewStyle
  3
ObjectDBX Classes
 90
1025
 91
0
280
0
281
0
  0
CLASS
  1
DIMASSOC
  2
AcDbDimAssoc
  3
"AcDbDimAssoc|Product Desc:     AcDim ARX App For Dimension|Company:          Autodesk, Inc.|WEB Address:      www.autodesk.com"
 90
0
 91
0
280
0
281
0
  0
CLASS
  1
SORTENTSTABLE
  2
AcDbSortentsTable
  3
ObjectDBX Classes
 90
0
 91
1
280
0
281
0
  0
CLASS
  1
ACDBPLACEHOLDER
  2
AcDbPlaceHolder
  3
ObjectDBX Classes
 90
0
 91
1
280
0
281
0
  0
CLASS
  1
LAYOUT
  2
AcDbLayout
  3
ObjectDBX Classes
 90
0
 91
3
280
0
281
0
  0
CLASS
  1
MESH
  2
AcDbSubDMesh
  3
ObjectDBX Classes
 90
0
 91
0
280
0
281
1
  0
CLASS
  1
ACDB_TEXTOBJECTCONTEXTDATA_CLASS
  2
AcDbTextObjectContextData
  3
ObjectDBX Classes
 90
1153
 91
0
280
0
281
0
  0
CLASS
  1
WIPEOUT
  2
AcDbWipeout
  3
WipeOut
 90
32895
 91
0
280
0
281
1
  0
CLASS
  1
WIPEOUTVARIABLES
  2
AcDbWipeoutVariables
  3
WipeOut
 90
32768
 91
0
280
0
281
0
  0
CLASS
  1
ARC_DIMENSION
  2
AcDbArcDimension
  3
ObjectDBX Classes
 90
1025
 91
0
280
0
281
1
  0
CLASS
  1
ACAD_TABLE
  2
AcDbTable
  3
ObjectDBX Classes
 90
1025
 91
0
280
0
281
1
  0
CLASS
  1
TABLECONTENT
  2
AcDbTableContent
  3
ObjectDBX Classes
 90
1152
 91
0
280
0
281
0
  0
CLASS
  1
TABLEGEOMETRY
  2
AcDbTableGeometry
  3
ObjectDBX Classes
 90
1152
 91
0
280
0
281
0
  0
CLASS
  1
IMAGE
  2
AcDbRasterImage
  3
ISM
 90
32895
 91
0
280
0
281
1
  0
CLASS
  1
IMAGEDEF
  2
AcDbRasterImageDef
  3
ISM
 90
0
 91
0
280
0
281
0
  0
CLASS
  1
IMAGEDEF_REACTOR
  2
AcDbRasterImageDefReactor
  3
ISM
 90
1
 91
0
280
0
281
0
  0
CLASS
  1
DBCOLOR
  2
AcDbColor
  3
ObjectDBX Classes
 90
0
 91
0
280
0
281
0
  0
CLASS
  1
GEODATA
  2
AcDbGeoData
  3
ObjectDBX Classes
 90
4095
 91
0
280
0
281
0
  0
CLASS
  1
MULTILEADER
  2
AcDbMLeader
  3
ObjectDBX Classes
 90
1025
 91
0
280
0
281
0
  0
CLASS
  1
PDFUNDERLAY
  2
AcDbPdfReference
  3
ObjectDBX Classes
 90
4095
 91
0
280
0
281
1
  0
CLASS
  1
PDFDEFINITION
  2
AcDbPdfDefinition
  3
ObjectDBX Classes
 90
1153
 91
0
280
0
281
0
  0
CLASS
  1
RASTERVARIABLES
  2
AcDbRasterVariables
  3
ISM
 90
0
 91
0
280
0
281
0
  0
CLASS
  1
SPATIAL_FILTER
  2
AcDbSpatialFilter
  3
ObjectDBX Classes
 90
0
 91
0
280
0
281
0
  0
CLASS
  1
ACDB_MLEADEROBJECTCONTEXTDATA_CLASS
  2
AcDbMLeaderObjectContextData
  3
ObjectDBX Classes
 90
1025
 91
0
280
0
281
0
  0
CLASS
  1
PLOTSETTINGS
  2
AcDbPlotSettings
  3
ObjectDBX Classes
 90
0
 91
0
280
0
281
0
  0
CLASS
  1
FIELD
  2
AcDbField
  3
ObjectDBX Classes
 90
1152
 91
0
280
0
281
0
  0
CLASS
  1
FIELDLIST
  2
AcDbFieldList
  3
ObjectDBX Classes
 90
1152
 91
0
280
0
281
0
  0
CLASS
  1
ACDB_MTEXTATTRIBUTEOBJECTCONTEXTDATA_CLASS
  2
AcDbMTextAttributeObjectContextData
  3
ObjectDBX Classes
 90
1153
 91
0
280
0
281
0
  0
CLASS
  1
ACDB_BLKREFOBJECTCONTEXTDATA_CLASS
  2
AcDbBlkRefObjectContextData
  3
ObjectDBX Classes
 90
1153
 91
0
280
0
281
0
  0
ENDSEC
  0
SECTION
  2
TABLES
  0
TABLE
  2
VPORT
  5
8
330
0
100
AcDbSymbolTable
 70
1
  0
VPORT
  5
EA
330
8
100
AcDbSymbolTableRecord
100
AcDbViewportTableRecord
  2
*Active
 70
0
 10
0
 20
0
 11
1
 21
1
 12
3036.7752812188082
 22
1603.71747782213
 13
0
 23
0
 14
10
 24
10
 15
10
 25
10
 16
0
 26
0
 36
1
 17
0
 27
0
 37
0
 40
11.715935884896616
 41
1.848784878487849
 75
0
 76
0
1001
ACAD_NAV_VCDISPLAY
1070
3
  0
ENDTAB
  0
TABLE
  2
LTYPE
  5
5
330
0
100
AcDbSymbolTable
 70
4
  0
LTYPE
  5
16
330
5
100
AcDbSymbolTableRecord
100
AcDbLinetypeTableRecord
  2
Continuous
 70
0
  3
Solid line
 72
65
 73
0
 40
0
  0
LTYPE
  5
32C
330
5
100
AcDbSymbolTableRecord
100
AcDbLinetypeTableRecord
  2
HIDDEN
 70
0
  3
Hidden __ __ __ __ __ __ __ __ __ __ __ __ __ _
 72
65
 73
2
 40
0.375
 49
0.25
 74
0
 49
-0.125
 74
0
  0
LTYPE
  5
14
330
5
100
AcDbSymbolTableRecord
100
AcDbLinetypeTableRecord
  2
ByBlock
 70
0
  3

 72
65
 73
0
 40
0
  0
LTYPE
  5
15
330
5
100
AcDbSymbolTableRecord
100
AcDbLinetypeTableRecord
  2
ByLayer
 70
0
  3

 72
65
 73
0
 40
0
  0
ENDTAB
  0
TABLE
  2
LAYER
  5
2
102
{ACAD_XDICTIONARY
360
1FF
102
}
330
0
100
AcDbSymbolTable
 70
5
  0
LAYER
  5
10
102
{ACAD_XDICTIONARY
360
13C
102
}
330
2
100
AcDbSymbolTableRecord
100
AcDbLayerTableRecord
  2
0
 70
0
 62
7
  6
Continuous
290
1
370
-3
390
0
  0
LAYER
  5
32D
330
2
100
AcDbSymbolTableRecord
100
AcDbLayerTableRecord
  2
Defpoints
 70
0
 62
7
  6
Continuous
290
0
370
-3
390
0
  0
LAYER
  5
D48
330
2
100
AcDbSymbolTableRecord
100
AcDbLayerTableRecord
  2
VIP
 70
0
 62
7
  6
Continuous
290
1
370
-3
390
0
1001
AcAecLayerStandard
1000

1000

1001
AcCmTransparency
1071
0
  0
LAYER
  5
E33
330
2
100
AcDbSymbolTableRecord
100
AcDbLayerTableRecord
  2
VVIP
 70
0
 62
7
  6
Continuous
290
1
370
-3
390
0
1001
AcAecLayerStandard
1000

1000

1001
AcCmTransparency
1071
0
  0
LAYER
  5
E34
330
2
100
AcDbSymbolTableRecord
100
AcDbLayerTableRecord
  2
General
 70
0
 62
7
  6
Continuous
290
1
370
-3
390
0
1001
AcAecLayerStandard
1000

1000

1001
AcCmTransparency
1071
0
  0
ENDTAB
  0
TABLE
  2
STYLE
  5
3
330
0
100
AcDbSymbolTable
 70
3
  0
STYLE
  5
11
330
3
100
AcDbSymbolTableRecord
100
AcDbTextStyleTableRecord
  2
Standard
 70
0
  3
arial.ttf
 40
0
 41
1
 42
2.5
 50
0
 71
0
1001
ACAD
1000
Arial
1071
34
  0
STYLE
  5
132
330
3
100
AcDbSymbolTableRecord
100
AcDbTextStyleTableRecord
  2
Annotative
 70
0
  3
arial.ttf
 40
0
 41
1
 42
2.5
 50
0
 71
0
1001
AcadAnnotative
1000
AnnotativeData
1002
{
1070
1
1070
1
1002
}
1001
ACAD
1000
Arial
1071
34
  0
STYLE
  5
331
330
3
100
AcDbSymbolTableRecord
100
AcDbTextStyleTableRecord
  2
ROMANS
 70
0
  3
ROMANS.shx
 40
0
 41
1
 42
0.125
 50
0
 71
0
  0
ENDTAB
  0
TABLE
  2
VIEW
  5
6
330
0
100
AcDbSymbolTable
 70
0
  0
ENDTAB
  0
TABLE
  2
UCS
  5
7
330
0
100
AcDbSymbolTable
 70
0
  0
ENDTAB
  0
TABLE
  2
APPID
  5
9
330
0
100
AcDbSymbolTable
 70
14
  0
APPID
  5
12
330
9
100
AcDbSymbolTableRecord
100
AcDbRegAppTableRecord
  2
ACAD
 70
0
  0
APPID
  5
9E
330
9
100
AcDbSymbolTableRecord
100
AcDbRegAppTableRecord
  2
ACAD_PSEXT
 70
0
  0
APPID
  5
133
330
9
100
AcDbSymbolTableRecord
100
AcDbRegAppTableRecord
  2
AcadAnnoPO
 70
0
  0
APPID
  5
134
330
9
100
AcDbSymbolTableRecord
100
AcDbRegAppTableRecord
  2
AcadAnnotative
 70
0
  0
APPID
  5
135
330
9
100
AcDbSymbolTableRecord
100
AcDbRegAppTableRecord
  2
ACAD_DSTYLE_DIMJAG
 70
0
  0
APPID
  5
136
330
9
100
AcDbSymbolTableRecord
100
AcDbRegAppTableRecord
  2
ACAD_DSTYLE_DIMTALN
 70
0
  0
APPID
  5
165
330
9
100
AcDbSymbolTableRecord
100
AcDbRegAppTableRecord
  2
ACAD_MLEADERVER
 70
0
  0
APPID
  5
217
330
9
100
AcDbSymbolTableRecord
100
AcDbRegAppTableRecord
  2
ACAD_NAV_VCDISPLAY
 70
0
  0
APPID
  5
338
330
9
100
AcDbSymbolTableRecord
100
AcDbRegAppTableRecord
  2
GradientColor1ACI
 70
0
  0
APPID
  5
339
330
9
100
AcDbSymbolTableRecord
100
AcDbRegAppTableRecord
  2
GradientColor2ACI
 70
0
  0
APPID
  5
33A
330
9
100
AcDbSymbolTableRecord
100
AcDbRegAppTableRecord
  2
AcAecLayerStandard
 70
0
  0
APPID
  5
33B
330
9
100
AcDbSymbolTableRecord
100
AcDbRegAppTableRecord
  2
ACAD_DSTYLE_DIMBREAK
 70
0
  0
APPID
  5
D02
330
9
100
AcDbSymbolTableRecord
100
AcDbRegAppTableRecord
  2
ACAD_EXEMPT_FROM_CAD_STANDARDS
 70
0
  0
APPID
  5
D49
330
9
100
AcDbSymbolTableRecord
100
AcDbRegAppTableRecord
  2
AcCmTransparency
 70
0
  0
ENDTAB
  0
TABLE
  2
DIMSTYLE
  5
A
330
0
100
AcDbSymbolTable
 70
9
100
AcDbDimStyleTable
  0
DIMSTYLE
105
1B0
330
A
100
AcDbSymbolTableRecord
100
AcDbDimStyleTableRecord
  2
Standard
 70
0
  3

  4

 40
1
 41
0.18
 42
0.0625
 43
0.38
 44
0.18
 45
0
 46
0
 47
0
 48
0
 49
1
 50
45
 70
0
 90
0
140
0.18
141
0.09
142
0
143
25.4
144
1
145
0
146
1
147
0.09
148
0
 71
0
 72
0
 73
1
 74
1
 75
0
 76
0
 77
0
 78
0
 79
0
170
0
171
2
172
0
173
0
174
0
175
0
176
0
177
0
178
0
179
0
271
4
272
4
273
2
274
2
275
0
276
0
277
2
278
46
279
0
280
0
281
0
282
0
283
1
284
0
285
0
286
0
287
3
288
0
289
3
290
0
340
11
371
-2
372
-2
  0
DIMSTYLE
105
137
330
A
100
AcDbSymbolTableRecord
100
AcDbDimStyleTableRecord
  2
Annotative
 70
0
  3

  4

 40
0
 41
2.5
 42
0.625
 43
3.75
 44
1.25
 45
0
 46
0
 47
0
 48
0
 49
1
 50
45
 70
0
 90
0
140
2.5
141
2.5
142
0
143
0.039370078740160006
144
1
145
0
146
1
147
0.625
148
0
 71
0
 72
0
 73
0
 74
0
 75
0
 76
0
 77
1
 78
8
 79
0
170
0
171
3
172
1
173
0
174
0
175
0
176
0
177
0
178
0
179
0
271
2
272
2
273
2
274
3
275
0
276
0
277
2
278
44
279
0
280
0
281
0
282
0
283
0
284
8
285
0
286
0
287
3
288
0
289
3
290
0
340
11
371
-2
372
-2
1001
AcadAnnotative
1000
AnnotativeData
1002
{
1070
1
1070
1
1002
}
1001
ACAD_DSTYLE_DIMJAG
1070
388
1040
1.5
1001
ACAD_DSTYLE_DIMTALN
1070
392
1070
0
  0
DIMSTYLE
105
27
330
A
100
AcDbSymbolTableRecord
100
AcDbDimStyleTableRecord
  2
ISO-25
 70
0
  3

  4

 40
1
 41
2.5
 42
0.625
 43
3.75
 44
1.25
 45
0
 46
0
 47
0
 48
0
 49
1
 50
45
 70
0
 90
0
140
2.5
141
2.5
142
0
143
0.039370078740160006
144
1
145
0
146
1
147
0.625
148
0
 71
0
 72
0
 73
0
 74
0
 75
0
 76
0
 77
1
 78
8
 79
0
170
0
171
3
172
1
173
0
174
0
175
0
176
0
177
0
178
0
179
0
271
2
272
2
273
2
274
3
275
0
276
0
277
2
278
44
279
0
280
0
281
0
282
0
283
0
284
8
285
0
286
0
287
3
288
0
289
3
290
0
340
11
371
-2
372
-2
  0
DIMSTYLE
105
332
330
A
100
AcDbSymbolTableRecord
100
AcDbDimStyleTableRecord
  2
Copy of R-20 MTS
 70
0
  3

  4

 40
1
 41
0.03
 42
0.03
 43
0.03
 44
0.03
 45
0
 46
0.1
 47
0
 48
0
 49
1
 50
45
 70
0
 90
0
140
0.04
141
0.1
142
0
143
0.039370078740160006
144
1
145
0
146
1
147
0.02
148
0
 71
0
 72
0
 73
0
 74
0
 75
0
 76
0
 77
1
 78
1
 79
1
170
0
171
3
172
1
173
0
174
0
175
0
176
8
177
8
178
4
179
0
271
2
272
2
273
2
274
3
275
0
276
0
277
2
278
46
279
0
280
0
281
0
282
0
283
0
284
8
285
0
286
0
287
3
288
0
289
3
290
0
340
331
371
-2
372
-2
1001
ACAD_DSTYLE_DIMJAG
1070
388
1040
1.5
1001
ACAD_DSTYLE_DIMTALN
1070
392
1070
0
  0
DIMSTYLE
105
333
330
A
100
AcDbSymbolTableRecord
100
AcDbDimStyleTableRecord
  2
Copy(2) of R-100MTS
 70
0
  3

  4

 40
1
 41
0.06
 42
0.06
 43
0.07
 44
0.06
 45
0
 46
0.05
 47
0
 48
0
 49
1
 50
45
 70
0
 90
0
140
0.085
141
0.2
142
0
143
0.039370078740160006
144
1
145
0
146
1
147
0.025
148
0
 71
0
 72
0
 73
0
 74
0
 75
0
 76
0
 77
1
 78
1
 79
1
170
0
171
3
172
1
173
0
174
0
175
0
176
8
177
8
178
4
179
0
271
2
272
2
273
2
274
3
275
0
276
0
277
2
278
46
279
0
280
0
281
0
282
0
283
0
284
8
285
0
286
0
287
3
288
0
289
3
290
0
340
331
371
-2
372
-2
1001
ACAD_DSTYLE_DIMBREAK
1070
391
1040
0.125
1001
ACAD_DSTYLE_DIMJAG
1070
388
1040
1.5
1001
ACAD_DSTYLE_DIMTALN
1070
392
1070
0
  0
DIMSTYLE
105
334
330
A
100
AcDbSymbolTableRecord
100
AcDbDimStyleTableRecord
  2
Copy(2) of R-10 MTS
 70
0
  3

  4

 40
1
 41
0.02
 42
0.02
 43
0.03
 44
0.02
 45
0
 46
0.1
 47
0
 48
0
 49
1
 50
45
 70
0
 90
0
140
0.025
141
0.1
142
0
143
0.039370078740160006
144
1
145
0
146
1
147
0.0125
148
0
 71
0
 72
0
 73
0
 74
0
 75
0
 76
0
 77
1
 78
1
 79
1
170
0
171
3
172
1
173
0
174
0
175
0
176
8
177
8
178
4
179
0
271
2
272
2
273
2
274
3
275
0
276
0
277
2
278
46
279
0
280
0
281
0
282
0
283
0
284
8
285
0
286
0
287
3
288
0
289
3
290
0
340
331
371
-2
372
-2
1001
ACAD_DSTYLE_DIMBREAK
1070
391
1040
0.125
1001
ACAD_DSTYLE_DIMJAG
1070
388
1040
1.5
1001
ACAD_DSTYLE_DIMTALN
1070
392
1070
0
  0
DIMSTYLE
105
335
330
A
100
AcDbSymbolTableRecord
100
AcDbDimStyleTableRecord
  2
Copy of R-50MTS
 70
0
  3

  4

 40
1
 41
0.04
 42
0.04
 43
0.1
 44
0.04
 45
0
 46
0.05
 47
0
 48
0
 49
1
 50
45
 70
0
 90
0
140
0.05
141
0.2
142
0
143
0.039370078740160006
144
1
145
0
146
1
147
0.02
148
0
 71
0
 72
0
 73
0
 74
0
 75
0
 76
0
 77
1
 78
1
 79
1
170
0
171
3
172
1
173
0
174
0
175
0
176
8
177
8
178
4
179
0
271
2
272
2
273
2
274
3
275
0
276
0
277
2
278
46
279
0
280
0
281
0
282
0
283
0
284
8
285
0
286
0
287
3
288
0
289
3
290
0
340
331
371
-2
372
-2
1001
ACAD_DSTYLE_DIMBREAK
1070
391
1040
0.125
1001
ACAD_DSTYLE_DIMJAG
1070
388
1040
1.5
1001
ACAD_DSTYLE_DIMTALN
1070
392
1070
0
  0
DIMSTYLE
105
336
330
A
100
AcDbSymbolTableRecord
100
AcDbDimStyleTableRecord
  2
Copy of R-200MTS
 70
0
  3

  4

 40
1
 41
0.1
 42
0.1
 43
0.1
 44
0.1
 45
0
 46
0.05
 47
0
 48
0
 49
1
 50
45
 70
0
 90
0
140
0.2
141
0.2
142
0
143
0.039370078740160006
144
1
145
0
146
1
147
0.075
148
0
 71
0
 72
0
 73
0
 74
0
 75
0
 76
0
 77
1
 78
1
 79
1
170
0
171
3
172
1
173
0
174
0
175
0
176
8
177
8
178
4
179
0
271
2
272
2
273
2
274
3
275
0
276
0
277
2
278
46
279
0
280
0
281
0
282
0
283
0
284
8
285
0
286
0
287
3
288
0
289
3
290
0
340
331
371
-2
372
-2
1001
ACAD_DSTYLE_DIMBREAK
1070
391
1040
0.125
1001
ACAD_DSTYLE_DIMJAG
1070
388
1040
1.5
1001
ACAD_DSTYLE_DIMTALN
1070
392
1070
0
  0
DIMSTYLE
105
337
330
A
100
AcDbSymbolTableRecord
100
AcDbDimStyleTableRecord
  2
Copy of R-5MTS
 70
0
  3

  4

 40
1
 41
0.008
 42
0.008
 43
0.03
 44
0.008
 45
0
 46
0.1
 47
0
 48
0
 49
1
 50
45
 70
0
 90
0
140
0.01
141
0.1
142
0
143
0.039370078740160006
144
1
145
0
146
1
147
0.005
148
0
 71
0
 72
0
 73
0
 74
0
 75
0
 76
0
 77
1
 78
1
 79
1
170
0
171
3
172
1
173
0
174
0
175
0
176
8
177
8
178
4
179
0
271
2
272
2
273
2
274
3
275
0
276
0
277
2
278
46
279
0
280
0
281
0
282
0
283
0
284
8
285
0
286
0
287
3
288
0
289
3
290
0
340
331
371
-2
372
-2
1001
ACAD_DSTYLE_DIMBREAK
1070
391
1040
0.125
1001
ACAD_DSTYLE_DIMJAG
1070
388
1040
1.5
1001
ACAD_DSTYLE_DIMTALN
1070
392
1070
0
  0
ENDTAB
  0
TABLE
  2
BLOCK_RECORD
  5
1
330
0
100
AcDbSymbolTable
 70
3
  0
BLOCK_RECORD
  5
D2
330
1
100
AcDbSymbolTableRecord
100
AcDbBlockTableRecord
  2
*Paper_Space0
340
D3
 70
0
280
1
281
0
  0
BLOCK_RECORD
  5
1F
102
{ACAD_XDICTIONARY
360
1CE
102
}
330
1
100
AcDbSymbolTableRecord
100
AcDbBlockTableRecord
  2
*Model_Space
340
22
 70
0
280
1
281
0
  0
BLOCK_RECORD
  5
D6
330
1
100
AcDbSymbolTableRecord
100
AcDbBlockTableRecord
  2
*Paper_Space
340
D7
 70
0
280
1
281
0
  0
ENDTAB
  0
ENDSEC
  0
SECTION
  2
BLOCKS
  0
BLOCK
  5
D4
330
D2
100
AcDbEntity
  8
0
  6
ByLayer
 62
256
 48
1
 60
0
 67
1
370
-1
100
AcDbBlockBegin
  2
*Paper_Space0
 70
0
 10
0
 20
0
 30
0
  3
*Paper_Space0
  4

  0
VIEWPORT
  5
D1A
102
{ACAD_XDICTIONARY
360
D1B
102
}
330
D2
100
AcDbEntity
  8
0
  6
ByLayer
 62
256
 48
1
 60
0
 67
1
370
-1
100
AcDbViewport
 10
128.5
 20
97.5
 30
0
 40
411.033
 41
222.18
 68
1
 69
1
 12
128.5
 22
97.5
 13
0
 23
0
 14
0.5
 24
0.5
 15
0.5
 25
0.5
 16
0
 26
0
 36
1
 17
0
 27
0
 37
0
 42
50
 43
0
 44
0
 45
222.18
 50
0
 51
0
 72
1000
 90
819232
110
0
120
0
130
0
111
1
121
0
131
0
112
0
122
1
132
0
  0
VIEWPORT
  5
D1E
102
{ACAD_XDICTIONARY
360
D1F
102
}
330
D2
100
AcDbEntity
  8
0
  6
ByLayer
 62
256
 48
1
 60
0
 67
1
370
-1
100
AcDbViewport
 10
128.5
 20
97.5
 30
0
 40
205.6
 41
156
 68
1
 69
2
 12
3044.0190207009273
 22
1598.0219440570402
 13
0
 23
0
 14
10
 24
10
 15
10
 25
10
 16
0
 26
0
 36
1
 17
0
 27
0
 37
0
 42
50
 43
0
 44
0
 45
23.81042046966712
 50
0
 51
0
 72
1000
 90
819296
110
0
120
0
130
0
111
1
121
0
131
0
112
0
122
1
132
0
  0
ENDBLK
  5
D5
330
D2
100
AcDbEntity
  8
0
100
AcDbBlockEnd
  0
BLOCK
  5
20
330
1F
100
AcDbEntity
  8
0
  6
ByLayer
 62
256
 48
1
 60
0
 67
0
370
-1
100
AcDbBlockBegin
  2
*Model_Space
 70
0
 10
0
 20
0
 30
0
  3
*Model_Space
  4

  0
ENDBLK
  5
21
330
1F
100
AcDbEntity
  8
0
100
AcDbBlockEnd
  0
BLOCK
  5
D8
330
D6
100
AcDbEntity
  8
0
  6
ByLayer
 62
256
 48
1
 60
0
 67
1
370
-1
100
AcDbBlockBegin
  2
*Paper_Space
 70
0
 10
0
 20
0
 30
0
  3
*Paper_Space
  4

  0
ENDBLK
  5
D9
330
D6
100
AcDbEntity
  8
0
100
AcDbBlockEnd
  0
ENDSEC
  0
SECTION
  2
ENTITIES
  0
LINE
  5
DB7
102
{ACAD_REACTORS
330
DEB
330
DEB
102
}
330
1F
100
AcDbEntity
  8
VVIP
  6
Continuous
 62
125
 48
1
 60
0
 67
0
370
-1
100
AcDbLine
 10
3035.094902042751
 20
1600.5713929652038
 30
0
 11
3035.373720695215
 21
1600.223276491058
 31
0
 39
0
210
0
220
0
230
1
  0
LINE
  5
DB8
102
{ACAD_REACTORS
330
DEB
330
DEB
102
}
330
1F
100
AcDbEntity
  8
VVIP
  6
Continuous
 62
125
 48
1
 60
0
 67
0
370
-1
100
AcDbLine
 10
3035.7393295844017
 20
1600.5058708165188
 30
0
 11
3035.453004925374
 21
1600.8633243515949
 31
0
 39
0
210
0
220
0
230
1
  0
LINE
  5
DB9
102
{ACAD_REACTORS
330
DEB
330
DEB
102
}
330
1F
100
AcDbEntity
  8
VVIP
  6
Continuous
 62
125
 48
1
 60
0
 67
0
370
-1
100
AcDbLine
 10
3035.433682949021
 20
1600.2636066334699
 30
0
 11
3035.149862572653
 21
1600.6179641625022
 31
0
 39
0
210
0
220
0
230
1
  0
LINE
  5
DBA
102
{ACAD_REACTORS
330
DEB
330
DEB
102
}
330
1F
100
AcDbEntity
  8
VVIP
  6
Continuous
 62
125
 48
1
 60
0
 67
0
370
-1
100
AcDbLine
 10
3035.090545712447
 20
1600.544842138701
 30
0
 11
3035.480809063928
 21
1600.857420956046
 31
0
 39
0
210
0
220
0
230
1
  0
LINE
  5
DBB
102
{ACAD_REACTORS
330
DEB
330
DEB
102
}
330
1F
100
AcDbEntity
  8
VVIP
  6
Continuous
 62
125
 48
1
 60
0
 67
0
370
-1
100
AcDbLine
 10
3035.348113033441
 20
1600.2232786532002
 30
0
 11
3035.73837482396
 21
1600.535856220187
 31
0
 39
0
210
0
220
0
230
1
  0
LINE
  5
DBC
102
{ACAD_REACTORS
330
DEC
330
DEC
102
}
330
1F
100
AcDbEntity
  8
VVIP
  6
Continuous
 62
125
 48
1
 60
0
 67
0
370
-1
100
AcDbLine
 10
3034.908607587656
 20
1601.443260015745
 30
0
 11
3034.945665448468
 21
1600.9987927239051
 31
0
 39
0
210
0
220
0
230
1
  0
LINE
  5
DBD
102
{ACAD_REACTORS
330
DEC
330
DEC
102
}
330
1F
100
AcDbEntity
  8
VVIP
  6
Continuous
 62
125
 48
1
 60
0
 67
0
370
-1
100
AcDbLine
 10
3035.406754235345
 20
1601.029220527696
 30
0
 11
3035.3686801739614
 21
1601.4856257029749
 31
0
 39
0
210
0
220
0
230
1
  0
LINE
  5
DBE
102
{ACAD_REACTORS
330
DEC
330
DEC
102
}
330
1F
100
AcDbEntity
  8
VVIP
  6
Continuous
 62
125
 48
1
 60
0
 67
0
370
-1
100
AcDbLine
 10
3035.017928551898
 20
1600.9987905158991
 30
0
 11
3034.9802032648745
 21
1601.4512282365351
 31
0
 39
0
210
0
220
0
230
1
  0
LINE
  5
DBF
102
{ACAD_REACTORS
330
DEC
330
DEC
102
}
330
1F
100
AcDbEntity
  8
VVIP
  6
Continuous
 62
125
 48
1
 60
0
 67
0
370
-1
100
AcDbLine
 10
3034.890173653971
 20
1601.423661688805
 30
0
 11
3035.388455922738
 21
1601.465208931302
 31
0
 39
0
210
0
220
0
230
1
  0
LINE
  5
DC0
102
{ACAD_REACTORS
330
DEC
330
DEC
102
}
330
1F
100
AcDbEntity
  8
VVIP
  6
Continuous
 62
125
 48
1
 60
0
 67
0
370
-1
100
AcDbLine
 10
3034.9244182512925
 20
1601.013087327708
 30
0
 11
3035.422698306881
 21
1601.054634251136
 31
0
 39
0
210
0
220
0
230
1
  0
LINE
  5
DC1
102
{ACAD_REACTORS
330
DED
330
DED
102
}
330
1F
100
AcDbEntity
  8
VVIP
  6
Continuous
 62
125
 48
1
 60
0
 67
0
370
-1
100
AcDbLine
 10
3036.2226056936574
 20
1599.8534391627218
 30
0
 11
3035.791970789768
 21
1599.9695341157599
 31
0
 39
0
210
0
220
0
230
1
  0
LINE
  5
DC2
102
{ACAD_REACTORS
330
DED
330
DED
102
}
330
1F
100
AcDbEntity
  8
VVIP
  6
Continuous
 62
125
 48
1
 60
0
 67
0
370
-1
100
AcDbLine
 10
3035.904521109043
 20
1600.417709467892
 30
0
 11
3036.346718635105
 21
1600.298475806026
 31
0
 39
0
210
0
220
0
230
1
  0
LINE
  5
DC3
102
{ACAD_REACTORS
330
DED
330
DED
102
}
330
1F
100
AcDbEntity
  8
VVIP
  6
Continuous
 62
125
 48
1
 60
0
 67
0
370
-1
100
AcDbLine
 10
3035.8049162541292
 20
1600.040628215898
 30
0
 11
3036.2432730200817
 21
1599.9224485472698
 31
0
 39
0
210
0
220
0
230
1
  0
LINE
  5
DC4
102
{ACAD_REACTORS
330
DED
330
DED
102
}
330
1F
100
AcDbEntity
  8
VVIP
  6
Continuous
 62
125
 48
1
 60
0
 67
0
370
-1
100
AcDbLine
 10
3036.200021643666
 20
1599.838815038252
 30
0
 11
3036.330175549258
 21
1600.3215896788308
 31
0
 39
0
210
0
220
0
230
1
  0
LINE
  5
DC5
102
{ACAD_REACTORS
330
DED
330
DED
102
}
330
1F
100
AcDbEntity
  8
VVIP
  6
Continuous
 62
125
 48
1
 60
0
 67
0
370
-1
100
AcDbLine
 10
3035.802227135196
 20
1599.9460695368468
 30
0
 11
3035.932380330335
 21
1600.428842057212
 31
0
 39
0
210
0
220
0
230
1
  0
CIRCLE
  5
DC6
330
1F
100
AcDbEntity
  8
VVIP
  6
Continuous
 62
125
 48
1
 60
0
 67
0
370
-1
100
AcDbCircle
 10
3036.329335275695
 20
1601.289205636785
 30
0
 39
0
 40
0.9
210
0
220
0
230
1
  0
LINE
  5
DC7
102
{ACAD_REACTORS
330
DEE
330
DEE
102
}
330
1F
100
AcDbEntity
  8
VVIP
  6
Continuous
 62
125
 48
1
 60
0
 67
0
370
-1
100
AcDbLine
 10
3037.121660899277
 20
1600.072097860248
 30
0
 11
3036.706501524234
 21
1599.9091035294439
 31
0
 39
0
210
0
220
0
230
1
  0
LINE
  5
DC8
102
{ACAD_REACTORS
330
DEE
330
DEE
102
}
330
1F
100
AcDbEntity
  8
VVIP
  6
Continuous
 62
125
 48
1
 60
0
 67
0
370
-1
100
AcDbLine
 10
3036.530219546222
 20
1600.33624915433
 30
0
 11
3036.956538841711
 21
1600.503602602071
 31
0
 39
0
210
0
220
0
230
1
  0
LINE
  5
DC9
102
{ACAD_REACTORS
330
DEE
330
DEE
102
}
330
1F
100
AcDbEntity
  8
VVIP
  6
Continuous
 62
125
 48
1
 60
0
 67
0
370
-1
100
AcDbLine
 10
3036.6745934145006
 20
1599.973940468407
 30
0
 11
3037.0971989264663
 21
1600.13985511391
 31
0
 39
0
210
0
220
0
230
1
  0
LINE
  5
DCA
102
{ACAD_REACTORS
330
DEE
330
DEE
102
}
330
1F
100
AcDbEntity
  8
VVIP
  6
Continuous
 62
125
 48
1
 60
0
 67
0
370
-1
100
AcDbLine
 10
3037.1122154265113
 20
1600.046904857747
 30
0
 11
3036.929488405543
 21
1600.512331789214
 31
0
 39
0
210
0
220
0
230
1
  0
LINE
  5
DCB
102
{ACAD_REACTORS
330
DEE
330
DEE
102
}
330
1F
100
AcDbEntity
  8
VVIP
  6
Continuous
 62
125
 48
1
 60
0
 67
0
370
-1
100
AcDbLine
 10
3036.728708543007
 20
1599.89635098452
 30
0
 11
3036.545982212935
 21
1600.361775789326
 31
0
 39
0
210
0
220
0
230
1
  0
LINE
  5
DCC
102
{ACAD_REACTORS
330
DEF
330
DEF
102
}
330
1F
100
AcDbEntity
  8
VVIP
  6
Continuous
 62
125
 48
1
 60
0
 67
0
370
-1
100
AcDbLine
 10
3035.588507888919
 20
1602.509965736517
 30
0
 11
3035.9998579553803
 21
1602.6823491561481
 31
0
 39
0
210
0
220
0
230
1
  0
LINE
  5
DCD
102
{ACAD_REACTORS
330
DEF
330
DEF
102
}
330
1F
100
AcDbEntity
  8
VVIP
  6
Continuous
 62
125
 48
1
 60
0
 67
0
370
-1
100
AcDbLine
 10
3036.185798035332
 20
1602.2593175978689
 30
0
 11
3035.763390614404
 21
1602.082323782033
 31
0
 39
0
210
0
220
0
230
1
  0
LINE
  5
DCE
102
{ACAD_REACTORS
330
DEF
330
DEF
102
}
330
1F
100
AcDbEntity
  8
VVIP
  6
Continuous
 62
125
 48
1
 60
0
 67
0
370
-1
100
AcDbLine
 10
3036.033231007751
 20
1602.61825366766
 30
0
 11
3035.614503556332
 21
1602.442781203022
 31
0
 39
0
210
0
220
0
230
1
  0
LINE
  5
DCF
102
{ACAD_REACTORS
330
DEF
330
DEF
102
}
330
1F
100
AcDbEntity
  8
VVIP
  6
Continuous
 62
125
 48
1
 60
0
 67
0
370
-1
100
AcDbLine
 10
3035.5973797242045
 20
1602.535366810127
 30
0
 11
3035.790632252445
 21
1602.074211238876
 31
0
 39
0
210
0
220
0
230
1
  0
LINE
  5
DD0
102
{ACAD_REACTORS
330
DEF
330
DEF
102
}
330
1F
100
AcDbEntity
  8
VVIP
  6
Continuous
 62
125
 48
1
 60
0
 67
0
370
-1
100
AcDbLine
 10
3035.977367537184
 20
1602.694593887088
 30
0
 11
3036.170619292513
 21
1602.233440160456
 31
0
 39
0
210
0
220
0
230
1
  0
LINE
  5
DD1
102
{ACAD_REACTORS
330
DF0
330
DF0
102
}
330
1F
100
AcDbEntity
  8
VVIP
  6
Continuous
 62
125
 48
1
 60
0
 67
0
370
-1
100
AcDbLine
 10
3035.007936312418
 20
1601.8333606653212
 30
0
 11
3035.25304400333
 21
1602.205982025978
 31
0
 39
0
210
0
220
0
230
1
  0
LINE
  5
DD2
102
{ACAD_REACTORS
330
DF0
330
DF0
102
}
330
1F
100
AcDbEntity
  8
VVIP
  6
Continuous
 62
125
 48
1
 60
0
 67
0
370
-1
100
AcDbLine
 10
3035.643433602462
 20
1601.958747963766
 30
0
 11
3035.391724271555
 21
1601.5761283995669
 31
0
 39
0
210
0
220
0
230
1
  0
LINE
  5
DD3
102
{ACAD_REACTORS
330
DF0
330
DF0
102
}
330
1F
100
AcDbEntity
  8
VVIP
  6
Continuous
 62
125
 48
1
 60
0
 67
0
370
-1
100
AcDbLine
 10
3035.316508592522
 20
1602.1714247974992
 30
0
 11
3035.067002964141
 21
1601.7921227677898
 31
0
 39
0
210
0
220
0
230
1
  0
LINE
  5
DD4
102
{ACAD_REACTORS
330
DF0
330
DF0
102
}
330
1F
100
AcDbEntity
  8
VVIP
  6
Continuous
 62
125
 48
1
 60
0
 67
0
370
-1
100
AcDbLine
 10
3035.001119822752
 20
1601.859388339031
 30
0
 11
3035.4188560363264
 21
1601.584601424143
 31
0
 39
0
210
0
220
0
230
1
  0
LINE
  5
DD5
102
{ACAD_REACTORS
330
DF0
330
DF0
102
}
330
1F
100
AcDbEntity
  8
VVIP
  6
Continuous
 62
125
 48
1
 60
0
 67
0
370
-1
100
AcDbLine
 10
3035.2275478410384
 20
1602.203589371813
 30
0
 11
3035.6452822635274
 21
1601.928803795577
 31
0
 39
0
210
0
220
0
230
1
  0
LINE
  5
DD6
102
{ACAD_REACTORS
330
DF1
330
DF1
102
}
330
1F
100
AcDbEntity
  8
VVIP
  6
Continuous
 62
125
 48
1
 60
0
 67
0
370
-1
100
AcDbLine
 10
3036.9222444620473
 20
1602.6011794431101
 30
0
 11
3036.488527170791
 21
1602.705168720585
 31
0
 39
0
210
0
220
0
230
1
  0
LINE
  5
DD7
102
{ACAD_REACTORS
330
DF1
330
DF1
102
}
330
1F
100
AcDbEntity
  8
VVIP
  6
Continuous
 62
125
 48
1
 60
0
 67
0
370
-1
100
AcDbLine
 10
3036.373036335332
 20
1602.25774209246
 30
0
 11
3036.818409312292
 21
1602.1509796010462
 31
0
 39
0
210
0
220
0
230
1
  0
LINE
  5
DD8
102
{ACAD_REACTORS
330
DF1
330
DF1
102
}
330
1F
100
AcDbEntity
  8
VVIP
  6
Continuous
 62
125
 48
1
 60
0
 67
0
370
-1
100
AcDbLine
 10
3036.465896146969
 20
1602.636540789812
 30
0
 11
3036.907391995454
 21
1602.53068945961
 31
0
 39
0
210
0
220
0
230
1
  0
LINE
  5
DD9
102
{ACAD_REACTORS
330
DF1
330
DF1
102
}
330
1F
100
AcDbEntity
  8
VVIP
  6
Continuous
 62
125
 48
1
 60
0
 67
0
370
-1
100
AcDbLine
 10
3036.9094043542436
 20
1602.6248233844449
 30
0
 11
3036.792826701044
 21
1602.138591913335
 31
0
 39
0
210
0
220
0
230
1
  0
LINE
  5
DDA
102
{ACAD_REACTORS
330
DF1
330
DF1
102
}
330
1F
100
AcDbEntity
  8
VVIP
  6
Continuous
 62
125
 48
1
 60
0
 67
0
370
-1
100
AcDbLine
 10
3036.508756308003
 20
1602.7208709845252
 30
0
 11
3036.3921790448303
 21
1602.234641715211
 31
0
 39
0
210
0
220
0
230
1
  0
LINE
  5
DDB
102
{ACAD_REACTORS
330
DF2
330
DF2
102
}
330
1F
100
AcDbEntity
  8
VVIP
  6
Continuous
 62
125
 48
1
 60
0
 67
0
370
-1
100
AcDbLine
 10
3037.607249049405
 20
1601.9791821729639
 30
0
 11
3037.3205947069373
 21
1602.320874646549
 31
0
 39
0
210
0
220
0
230
1
  0
LINE
  5
DDC
102
{ACAD_REACTORS
330
DF2
330
DF2
102
}
330
1F
100
AcDbEntity
  8
VVIP
  6
Continuous
 62
125
 48
1
 60
0
 67
0
370
-1
100
AcDbLine
 10
3036.9615003256267
 20
1602.0300483307801
 30
0
 11
3037.255870923037
 21
1601.679190425704
 31
0
 39
0
210
0
220
0
230
1
  0
LINE
  5
DDD
102
{ACAD_REACTORS
330
DF2
330
DF2
102
}
330
1F
100
AcDbEntity
  8
VVIP
  6
Continuous
 62
125
 48
1
 60
0
 67
0
370
-1
100
AcDbLine
 10
3037.2615644159387
 20
1602.2791927456162
 30
0
 11
3037.55336155597
 21
1601.931374520965
 31
0
 39
0
210
0
220
0
230
1
  0
LINE
  5
DDE
102
{ACAD_REACTORS
330
DF2
330
DF2
102
}
330
1F
100
AcDbEntity
  8
VVIP
  6
Continuous
 62
125
 48
1
 60
0
 67
0
370
-1
100
AcDbLine
 10
3037.6110020866854
 20
1602.0058246023182
 30
0
 11
3037.227939799116
 21
1601.684460826241
 31
0
 39
0
210
0
220
0
230
1
  0
LINE
  5
DDF
102
{ACAD_REACTORS
330
DF2
330
DF2
102
}
330
1F
100
AcDbEntity
  8
VVIP
  6
Continuous
 62
125
 48
1
 60
0
 67
0
370
-1
100
AcDbLine
 10
3037.346196336593
 20
1602.3214539944088
 30
0
 11
3036.9631356728432
 21
1602.000091755624
 31
0
 39
0
210
0
220
0
230
1
  0
LINE
  5
DE0
102
{ACAD_REACTORS
330
DF3
330
DF3
102
}
330
1F
100
AcDbEntity
  8
VVIP
  6
Continuous
 62
125
 48
1
 60
0
 67
0
370
-1
100
AcDbLine
 10
3037.761855997608
 20
1601.100650240652
 30
0
 11
3037.771020324541
 21
1601.5465655618468
 31
0
 39
0
210
0
220
0
230
1
  0
LINE
  5
DE1
102
{ACAD_REACTORS
330
DF3
330
DF3
102
}
330
1F
100
AcDbEntity
  8
VVIP
  6
Continuous
 62
125
 48
1
 60
0
 67
0
370
-1
100
AcDbLine
 10
3037.3092593736187
 20
1601.564045402719
 30
0
 11
3037.299869659965
 21
1601.106151144784
 31
0
 39
0
210
0
220
0
230
1
  0
LINE
  5
DE2
102
{ACAD_REACTORS
330
DF3
330
DF3
102
}
330
1F
100
AcDbEntity
  8
VVIP
  6
Continuous
 62
125
 48
1
 60
0
 67
0
370
-1
100
AcDbLine
 10
3037.6991458910884
 20
1601.5540503421719
 30
0
 11
3037.6898200934857
 21
1601.100138326659
 31
0
 39
0
210
0
220
0
230
1
  0
LINE
  5
DE3
102
{ACAD_REACTORS
330
DF3
330
DF3
102
}
330
1F
100
AcDbEntity
  8
VVIP
  6
Continuous
 62
125
 48
1
 60
0
 67
0
370
-1
100
AcDbLine
 10
3037.78222017818
 20
1601.1182344517651
 30
0
 11
3037.282314296467
 21
1601.128505876218
 31
0
 39
0
210
0
220
0
230
1
  0
LINE
  5
DE4
102
{ACAD_REACTORS
330
DF3
330
DF3
102
}
330
1F
100
AcDbEntity
  8
VVIP
  6
Continuous
 62
125
 48
1
 60
0
 67
0
370
-1
100
AcDbLine
 10
3037.790673155284
 20
1601.530147726145
 30
0
 11
3037.290769507909
 21
1601.540419238801
 31
0
 39
0
210
0
220
0
230
1
  0
LINE
  5
DE5
102
{ACAD_REACTORS
330
DF4
330
DF4
102
}
330
1F
100
AcDbEntity
  8
VVIP
  6
Continuous
 62
125
 48
1
 60
0
 67
0
370
-1
100
AcDbLine
 10
3037.424709061522
 20
1600.330143827418
 30
0
 11
3037.666130990624
 21
1600.705163707836
 31
0
 39
0
210
0
220
0
230
1
  0
LINE
  5
DE6
102
{ACAD_REACTORS
330
DF4
330
DF4
102
}
330
1F
100
AcDbEntity
  8
VVIP
  6
Continuous
 62
125
 48
1
 60
0
 67
0
370
-1
100
AcDbLine
 10
3037.281970658075
 20
1600.9619701710058
 30
0
 11
3037.034080959846
 21
1600.5768649702038
 31
0
 39
0
210
0
220
0
230
1
  0
LINE
  5
DE7
102
{ACAD_REACTORS
330
DF4
330
DF4
102
}
330
1F
100
AcDbEntity
  8
VVIP
  6
Continuous
 62
125
 48
1
 60
0
 67
0
370
-1
100
AcDbLine
 10
3037.6088311842077
 20
1600.749194246168
 30
0
 11
3037.363082233283
 21
1600.3674475481491
 31
0
 39
0
210
0
220
0
230
1
  0
LINE
  5
DE8
102
{ACAD_REACTORS
330
DF4
330
DF4
102
}
330
1F
100
AcDbEntity
  8
VVIP
  6
Continuous
 62
125
 48
1
 60
0
 67
0
370
-1
100
AcDbLine
 10
3037.451267237314
 20
1600.334452844636
 30
0
 11
3037.030839368094
 21
1600.605103541133
 31
0
 39
0
210
0
220
0
230
1
  0
LINE
  5
DE9
102
{ACAD_REACTORS
330
DF4
330
DF4
102
}
330
1F
100
AcDbEntity
  8
VVIP
  6
Continuous
 62
125
 48
1
 60
0
 67
0
370
-1
100
AcDbLine
 10
3037.674269511776
 20
1600.680883189747
 30
0
 11
3037.253843591931
 21
1600.951532790797
 31
0
 39
0
210
0
220
0
230
1
  0
LINE
  5
DF5
102
{ACAD_REACTORS
330
E29
330
E29
102
}
330
1F
100
AcDbEntity
  8
VIP
  6
Continuous
 62
125
 48
1
 60
0
 67
0
370
-1
100
AcDbLine
 10
3037.922081132837
 20
1603.8424477871522
 30
0
 11
3038.200899785302
 21
1603.494331313006
 31
0
 39
0
210
0
220
0
230
1
  0
LINE
  5
DF6
102
{ACAD_REACTORS
330
E29
330
E29
102
}
330
1F
100
AcDbEntity
  8
VIP
  6
Continuous
 62
125
 48
1
 60
0
 67
0
370
-1
100
AcDbLine
 10
3038.5665086744893
 20
1603.776925638467
 30
0
 11
3038.2801840154607
 21
1604.134379173542
 31
0
 39
0
210
0
220
0
230
1
  0
LINE
  5
DF7
102
{ACAD_REACTORS
330
E29
330
E29
102
}
330
1F
100
AcDbEntity
  8
VIP
  6
Continuous
 62
125
 48
1
 60
0
 67
0
370
-1
100
AcDbLine
 10
3038.2608620391084
 20
1603.534661455418
 30
0
 11
3037.97704166274
 21
1603.88901898445
 31
0
 39
0
210
0
220
0
230
1
  0
LINE
  5
DF8
102
{ACAD_REACTORS
330
E29
330
E29
102
}
330
1F
100
AcDbEntity
  8
VIP
  6
Continuous
 62
125
 48
1
 60
0
 67
0
370
-1
100
AcDbLine
 10
3037.9177248025344
 20
1603.815896960649
 30
0
 11
3038.3079881540148
 21
1604.128475777994
 31
0
 39
0
210
0
220
0
230
1
  0
LINE
  5
DF9
102
{ACAD_REACTORS
330
E29
330
E29
102
}
330
1F
100
AcDbEntity
  8
VIP
  6
Continuous
 62
125
 48
1
 60
0
 67
0
370
-1
100
AcDbLine
 10
3038.175292123528
 20
1603.494333475148
 30
0
 11
3038.565553914046
 21
1603.806911042135
 31
0
 39
0
210
0
220
0
230
1
  0
LINE
  5
DFA
102
{ACAD_REACTORS
330
E2A
330
E2A
102
}
330
1F
100
AcDbEntity
  8
VIP
  6
Continuous
 62
125
 48
1
 60
0
 67
0
370
-1
100
AcDbLine
 10
3037.735786677743
 20
1604.7143148376929
 30
0
 11
3037.772844538555
 21
1604.269847545853
 31
0
 39
0
210
0
220
0
230
1
  0
LINE
  5
DFB
102
{ACAD_REACTORS
330
E2A
330
E2A
102
}
330
1F
100
AcDbEntity
  8
VIP
  6
Continuous
 62
125
 48
1
 60
0
 67
0
370
-1
100
AcDbLine
 10
3038.233933325432
 20
1604.300275349644
 30
0
 11
3038.195859264048
 21
1604.756680524923
 31
0
 39
0
210
0
220
0
230
1
  0
LINE
  5
DFC
102
{ACAD_REACTORS
330
E2A
330
E2A
102
}
330
1F
100
AcDbEntity
  8
VIP
  6
Continuous
 62
125
 48
1
 60
0
 67
0
370
-1
100
AcDbLine
 10
3037.8451076419847
 20
1604.269845337847
 30
0
 11
3037.8073823549607
 21
1604.722283058483
 31
0
 39
0
210
0
220
0
230
1
  0
LINE
  5
DFD
102
{ACAD_REACTORS
330
E2A
330
E2A
102
}
330
1F
100
AcDbEntity
  8
VIP
  6
Continuous
 62
125
 48
1
 60
0
 67
0
370
-1
100
AcDbLine
 10
3037.717352744057
 20
1604.694716510752
 30
0
 11
3038.215635012825
 21
1604.7362637532501
 31
0
 39
0
210
0
220
0
230
1
  0
LINE
  5
DFE
102
{ACAD_REACTORS
330
E2A
330
E2A
102
}
330
1F
100
AcDbEntity
  8
VIP
  6
Continuous
 62
125
 48
1
 60
0
 67
0
370
-1
100
AcDbLine
 10
3037.75159734138
 20
1604.284142149656
 30
0
 11
3038.2498773969673
 21
1604.325689073084
 31
0
 39
0
210
0
220
0
230
1
  0
LINE
  5
DFF
102
{ACAD_REACTORS
330
E2B
330
E2B
102
}
330
1F
100
AcDbEntity
  8
VIP
  6
Continuous
 62
125
 48
1
 60
0
 67
0
370
-1
100
AcDbLine
 10
3039.0497847837437
 20
1603.1244939846697
 30
0
 11
3038.619149879855
 21
1603.240588937708
 31
0
 39
0
210
0
220
0
230
1
  0
LINE
  5
E00
102
{ACAD_REACTORS
330
E2B
330
E2B
102
}
330
1F
100
AcDbEntity
  8
VIP
  6
Continuous
 62
125
 48
1
 60
0
 67
0
370
-1
100
AcDbLine
 10
3038.73170019913
 20
1603.688764289841
 30
0
 11
3039.173897725191
 21
1603.569530627974
 31
0
 39
0
210
0
220
0
230
1
  0
LINE
  5
E01
102
{ACAD_REACTORS
330
E2B
330
E2B
102
}
330
1F
100
AcDbEntity
  8
VIP
  6
Continuous
 62
125
 48
1
 60
0
 67
0
370
-1
100
AcDbLine
 10
3038.6320953442155
 20
1603.311683037846
 30
0
 11
3039.070452110169
 21
1603.1935033692168
 31
0
 39
0
210
0
220
0
230
1
  0
LINE
  5
E02
102
{ACAD_REACTORS
330
E2B
330
E2B
102
}
330
1F
100
AcDbEntity
  8
VIP
  6
Continuous
 62
125
 48
1
 60
0
 67
0
370
-1
100
AcDbLine
 10
3039.027200733753
 20
1603.1098698602
 30
0
 11
3039.157354639344
 21
1603.5926445007792
 31
0
 39
0
210
0
220
0
230
1
  0
LINE
  5
E03
102
{ACAD_REACTORS
330
E2B
330
E2B
102
}
330
1F
100
AcDbEntity
  8
VIP
  6
Continuous
 62
125
 48
1
 60
0
 67
0
370
-1
100
AcDbLine
 10
3038.629406225282
 20
1603.2171243587948
 30
0
 11
3038.7595594204217
 21
1603.69989687916
 31
0
 39
0
210
0
220
0
230
1
  0
CIRCLE
  5
E04
330
1F
100
AcDbEntity
  8
VIP
  6
Continuous
 62
125
 48
1
 60
0
 67
0
370
-1
100
AcDbCircle
 10
3039.1565143657817
 20
1604.560260458733
 30
0
 39
0
 40
0.9
210
0
220
0
230
1
  0
LINE
  5
E05
102
{ACAD_REACTORS
330
E2C
330
E2C
102
}
330
1F
100
AcDbEntity
  8
VIP
  6
Continuous
 62
125
 48
1
 60
0
 67
0
370
-1
100
AcDbLine
 10
3039.948839989364
 20
1603.343152682195
 30
0
 11
3039.5336806143214
 21
1603.1801583513918
 31
0
 39
0
210
0
220
0
230
1
  0
LINE
  5
E06
102
{ACAD_REACTORS
330
E2C
330
E2C
102
}
330
1F
100
AcDbEntity
  8
VIP
  6
Continuous
 62
125
 48
1
 60
0
 67
0
370
-1
100
AcDbLine
 10
3039.3573986363094
 20
1603.607303976278
 30
0
 11
3039.7837179317967
 21
1603.7746574240189
 31
0
 39
0
210
0
220
0
230
1
  0
LINE
  5
E07
102
{ACAD_REACTORS
330
E2C
330
E2C
102
}
330
1F
100
AcDbEntity
  8
VIP
  6
Continuous
 62
125
 48
1
 60
0
 67
0
370
-1
100
AcDbLine
 10
3039.501772504588
 20
1603.2449952903548
 30
0
 11
3039.9243780165525
 21
1603.410909935858
 31
0
 39
0
210
0
220
0
230
1
  0
LINE
  5
E08
102
{ACAD_REACTORS
330
E2C
330
E2C
102
}
330
1F
100
AcDbEntity
  8
VIP
  6
Continuous
 62
125
 48
1
 60
0
 67
0
370
-1
100
AcDbLine
 10
3039.939394516598
 20
1603.3179596796952
 30
0
 11
3039.7566674956297
 21
1603.783386611162
 31
0
 39
0
210
0
220
0
230
1
  0
LINE
  5
E09
102
{ACAD_REACTORS
330
E2C
330
E2C
102
}
330
1F
100
AcDbEntity
  8
VIP
  6
Continuous
 62
125
 48
1
 60
0
 67
0
370
-1
100
AcDbLine
 10
3039.555887633094
 20
1603.167405806468
 30
0
 11
3039.373161303022
 21
1603.6328306112741
 31
0
 39
0
210
0
220
0
230
1
  0
LINE
  5
E0A
102
{ACAD_REACTORS
330
E2D
330
E2D
102
}
330
1F
100
AcDbEntity
  8
VIP
  6
Continuous
 62
125
 48
1
 60
0
 67
0
370
-1
100
AcDbLine
 10
3038.415686979006
 20
1605.781020558465
 30
0
 11
3038.827037045467
 21
1605.953403978096
 31
0
 39
0
210
0
220
0
230
1
  0
LINE
  5
E0B
102
{ACAD_REACTORS
330
E2D
330
E2D
102
}
330
1F
100
AcDbEntity
  8
VIP
  6
Continuous
 62
125
 48
1
 60
0
 67
0
370
-1
100
AcDbLine
 10
3039.0129771254183
 20
1605.5303724198168
 30
0
 11
3038.5905697044896
 21
1605.3533786039811
 31
0
 39
0
210
0
220
0
230
1
  0
LINE
  5
E0C
102
{ACAD_REACTORS
330
E2D
330
E2D
102
}
330
1F
100
AcDbEntity
  8
VIP
  6
Continuous
 62
125
 48
1
 60
0
 67
0
370
-1
100
AcDbLine
 10
3038.860410097838
 20
1605.8893084896079
 30
0
 11
3038.441682646418
 21
1605.7138360249699
 31
0
 39
0
210
0
220
0
230
1
  0
LINE
  5
E0D
102
{ACAD_REACTORS
330
E2D
330
E2D
102
}
330
1F
100
AcDbEntity
  8
VIP
  6
Continuous
 62
125
 48
1
 60
0
 67
0
370
-1
100
AcDbLine
 10
3038.424558814292
 20
1605.806421632075
 30
0
 11
3038.6178113425312
 21
1605.345266060824
 31
0
 39
0
210
0
220
0
230
1
  0
LINE
  5
E0E
102
{ACAD_REACTORS
330
E2D
330
E2D
102
}
330
1F
100
AcDbEntity
  8
VIP
  6
Continuous
 62
125
 48
1
 60
0
 67
0
370
-1
100
AcDbLine
 10
3038.8045466272697
 20
1605.965648709036
 30
0
 11
3038.997798382599
 21
1605.504494982404
 31
0
 39
0
210
0
220
0
230
1
  0
LINE
  5
E0F
102
{ACAD_REACTORS
330
E2E
330
E2E
102
}
330
1F
100
AcDbEntity
  8
VIP
  6
Continuous
 62
125
 48
1
 60
0
 67
0
370
-1
100
AcDbLine
 10
3037.835115402505
 20
1605.104415487269
 30
0
 11
3038.080223093416
 21
1605.477036847926
 31
0
 39
0
210
0
220
0
230
1
  0
LINE
  5
E10
102
{ACAD_REACTORS
330
E2E
330
E2E
102
}
330
1F
100
AcDbEntity
  8
VIP
  6
Continuous
 62
125
 48
1
 60
0
 67
0
370
-1
100
AcDbLine
 10
3038.470612692549
 20
1605.2298027857141
 30
0
 11
3038.218903361642
 21
1604.8471832215148
 31
0
 39
0
210
0
220
0
230
1
  0
LINE
  5
E11
102
{ACAD_REACTORS
330
E2E
330
E2E
102
}
330
1F
100
AcDbEntity
  8
VIP
  6
Continuous
 62
125
 48
1
 60
0
 67
0
370
-1
100
AcDbLine
 10
3038.143687682608
 20
1605.442479619447
 30
0
 11
3037.8941820542277
 21
1605.063177589738
 31
0
 39
0
210
0
220
0
230
1
  0
LINE
  5
E12
102
{ACAD_REACTORS
330
E2E
330
E2E
102
}
330
1F
100
AcDbEntity
  8
VIP
  6
Continuous
 62
125
 48
1
 60
0
 67
0
370
-1
100
AcDbLine
 10
3037.828298912839
 20
1605.130443160979
 30
0
 11
3038.246035126413
 21
1604.855656246091
 31
0
 39
0
210
0
220
0
230
1
  0
LINE
  5
E13
102
{ACAD_REACTORS
330
E2E
330
E2E
102
}
330
1F
100
AcDbEntity
  8
VIP
  6
Continuous
 62
125
 48
1
 60
0
 67
0
370
-1
100
AcDbLine
 10
3038.054726931125
 20
1605.474644193761
 30
0
 11
3038.472461353614
 21
1605.199858617525
 31
0
 39
0
210
0
220
0
230
1
  0
LINE
  5
E14
102
{ACAD_REACTORS
330
E2F
330
E2F
102
}
330
1F
100
AcDbEntity
  8
VIP
  6
Continuous
 62
125
 48
1
 60
0
 67
0
370
-1
100
AcDbLine
 10
3039.749423552134
 20
1605.872234265058
 30
0
 11
3039.315706260877
 21
1605.976223542533
 31
0
 39
0
210
0
220
0
230
1
  0
LINE
  5
E15
102
{ACAD_REACTORS
330
E2F
330
E2F
102
}
330
1F
100
AcDbEntity
  8
VIP
  6
Continuous
 62
125
 48
1
 60
0
 67
0
370
-1
100
AcDbLine
 10
3039.2002154254183
 20
1605.5287969144078
 30
0
 11
3039.645588402379
 21
1605.422034422994
 31
0
 39
0
210
0
220
0
230
1
  0
LINE
  5
E16
102
{ACAD_REACTORS
330
E2F
330
E2F
102
}
330
1F
100
AcDbEntity
  8
VIP
  6
Continuous
 62
125
 48
1
 60
0
 67
0
370
-1
100
AcDbLine
 10
3039.293075237055
 20
1605.90759561176
 30
0
 11
3039.7345710855407
 21
1605.8017442815578
 31
0
 39
0
210
0
220
0
230
1
  0
LINE
  5
E17
102
{ACAD_REACTORS
330
E2F
330
E2F
102
}
330
1F
100
AcDbEntity
  8
VIP
  6
Continuous
 62
125
 48
1
 60
0
 67
0
370
-1
100
AcDbLine
 10
3039.7365834443312
 20
1605.895878206393
 30
0
 11
3039.6200057911306
 21
1605.4096467352829
 31
0
 39
0
210
0
220
0
230
1
  0
LINE
  5
E18
102
{ACAD_REACTORS
330
E2F
330
E2F
102
}
330
1F
100
AcDbEntity
  8
VIP
  6
Continuous
 62
125
 48
1
 60
0
 67
0
370
-1
100
AcDbLine
 10
3039.335935398089
 20
1605.991925806473
 30
0
 11
3039.2193581349156
 21
1605.505696537159
 31
0
 39
0
210
0
220
0
230
1
  0
LINE
  5
E19
102
{ACAD_REACTORS
330
E30
330
E30
102
}
330
1F
100
AcDbEntity
  8
VIP
  6
Continuous
 62
125
 48
1
 60
0
 67
0
370
-1
100
AcDbLine
 10
3040.4344281394924
 20
1605.250236994911
 30
0
 11
3040.147773797024
 21
1605.591929468497
 31
0
 39
0
210
0
220
0
230
1
  0
LINE
  5
E1A
102
{ACAD_REACTORS
330
E30
330
E30
102
}
330
1F
100
AcDbEntity
  8
VIP
  6
Continuous
 62
125
 48
1
 60
0
 67
0
370
-1
100
AcDbLine
 10
3039.788679415714
 20
1605.301103152728
 30
0
 11
3040.0830500131237
 21
1604.950245247652
 31
0
 39
0
210
0
220
0
230
1
  0
LINE
  5
E1B
102
{ACAD_REACTORS
330
E30
330
E30
102
}
330
1F
100
AcDbEntity
  8
VIP
  6
Continuous
 62
125
 48
1
 60
0
 67
0
370
-1
100
AcDbLine
 10
3040.088743506026
 20
1605.5502475675642
 30
0
 11
3040.380540646057
 21
1605.2024293429129
 31
0
 39
0
210
0
220
0
230
1
  0
LINE
  5
E1C
102
{ACAD_REACTORS
330
E30
330
E30
102
}
330
1F
100
AcDbEntity
  8
VIP
  6
Continuous
 62
125
 48
1
 60
0
 67
0
370
-1
100
AcDbLine
 10
3040.4381811767716
 20
1605.276879424266
 30
0
 11
3040.0551188892027
 21
1604.9555156481879
 31
0
 39
0
210
0
220
0
230
1
  0
LINE
  5
E1D
102
{ACAD_REACTORS
330
E30
330
E30
102
}
330
1F
100
AcDbEntity
  8
VIP
  6
Continuous
 62
125
 48
1
 60
0
 67
0
370
-1
100
AcDbLine
 10
3040.1733754266793
 20
1605.5925088163572
 30
0
 11
3039.7903147629304
 21
1605.271146577572
 31
0
 39
0
210
0
220
0
230
1
  0
LINE
  5
E1E
102
{ACAD_REACTORS
330
E31
330
E31
102
}
330
1F
100
AcDbEntity
  8
VIP
  6
Continuous
 62
125
 48
1
 60
0
 67
0
370
-1
100
AcDbLine
 10
3040.589035087695
 20
1604.3717050626
 30
0
 11
3040.598199414628
 21
1604.8176203837938
 31
0
 39
0
210
0
220
0
230
1
  0
LINE
  5
E1F
102
{ACAD_REACTORS
330
E31
330
E31
102
}
330
1F
100
AcDbEntity
  8
VIP
  6
Continuous
 62
125
 48
1
 60
0
 67
0
370
-1
100
AcDbLine
 10
3040.136438463706
 20
1604.835100224667
 30
0
 11
3040.127048750052
 21
1604.377205966732
 31
0
 39
0
210
0
220
0
230
1
  0
LINE
  5
E20
102
{ACAD_REACTORS
330
E31
330
E31
102
}
330
1F
100
AcDbEntity
  8
VIP
  6
Continuous
 62
125
 48
1
 60
0
 67
0
370
-1
100
AcDbLine
 10
3040.526324981176
 20
1604.8251051641198
 30
0
 11
3040.516999183573
 21
1604.3711931486068
 31
0
 39
0
210
0
220
0
230
1
  0
LINE
  5
E21
102
{ACAD_REACTORS
330
E31
330
E31
102
}
330
1F
100
AcDbEntity
  8
VIP
  6
Continuous
 62
125
 48
1
 60
0
 67
0
370
-1
100
AcDbLine
 10
3040.609399268266
 20
1604.389289273713
 30
0
 11
3040.109493386554
 21
1604.399560698166
 31
0
 39
0
210
0
220
0
230
1
  0
LINE
  5
E22
102
{ACAD_REACTORS
330
E31
330
E31
102
}
330
1F
100
AcDbEntity
  8
VIP
  6
Continuous
 62
125
 48
1
 60
0
 67
0
370
-1
100
AcDbLine
 10
3040.6178522453697
 20
1604.801202548093
 30
0
 11
3040.117948597996
 21
1604.8114740607489
 31
0
 39
0
210
0
220
0
230
1
  0
LINE
  5
E23
102
{ACAD_REACTORS
330
E32
330
E32
102
}
330
1F
100
AcDbEntity
  8
VIP
  6
Continuous
 62
125
 48
1
 60
0
 67
0
370
-1
100
AcDbLine
 10
3040.251888151609
 20
1603.601198649365
 30
0
 11
3040.493310080711
 21
1603.9762185297839
 31
0
 39
0
210
0
220
0
230
1
  0
LINE
  5
E24
102
{ACAD_REACTORS
330
E32
330
E32
102
}
330
1F
100
AcDbEntity
  8
VIP
  6
Continuous
 62
125
 48
1
 60
0
 67
0
370
-1
100
AcDbLine
 10
3040.109149748162
 20
1604.2330249929541
 30
0
 11
3039.8612600499328
 21
1603.8479197921522
 31
0
 39
0
210
0
220
0
230
1
  0
LINE
  5
E25
102
{ACAD_REACTORS
330
E32
330
E32
102
}
330
1F
100
AcDbEntity
  8
VIP
  6
Continuous
 62
125
 48
1
 60
0
 67
0
370
-1
100
AcDbLine
 10
3040.436010274295
 20
1604.020249068115
 30
0
 11
3040.1902613233697
 21
1603.638502370097
 31
0
 39
0
210
0
220
0
230
1
  0
LINE
  5
E26
102
{ACAD_REACTORS
330
E32
330
E32
102
}
330
1F
100
AcDbEntity
  8
VIP
  6
Continuous
 62
125
 48
1
 60
0
 67
0
370
-1
100
AcDbLine
 10
3040.278446327401
 20
1603.605507666584
 30
0
 11
3039.85801845818
 21
1603.876158363081
 31
0
 39
0
210
0
220
0
230
1
  0
LINE
  5
E27
102
{ACAD_REACTORS
330
E32
330
E32
102
}
330
1F
100
AcDbEntity
  8
VIP
  6
Continuous
 62
125
 48
1
 60
0
 67
0
370
-1
100
AcDbLine
 10
3040.5014486018626
 20
1603.9519380116958
 30
0
 11
3040.0810226820176
 21
1604.222587612745
 31
0
 39
0
210
0
220
0
230
1
  0
LINE
  5
F52
102
{ACAD_REACTORS
330
F86
330
F86
102
}
330
1F
100
AcDbEntity
  8
General
  6
Continuous
 62
125
 48
1
 60
0
 67
0
370
-1
100
AcDbLine
 10
3033.2632256434904
 20
1604.3519039244063
 30
0
 11
3033.5420442959544
 21
1604.0037874502605
 31
0
 39
0
210
0
220
0
230
1
  0
LINE
  5
F53
102
{ACAD_REACTORS
330
F86
330
F86
102
}
330
1F
100
AcDbEntity
  8
General
  6
Continuous
 62
125
 48
1
 60
0
 67
0
370
-1
100
AcDbLine
 10
3033.907653185141
 20
1604.2863817757213
 30
0
 11
3033.6213285261133
 21
1604.6438353107974
 31
0
 39
0
210
0
220
0
230
1
  0
LINE
  5
F54
102
{ACAD_REACTORS
330
F86
330
F86
102
}
330
1F
100
AcDbEntity
  8
General
  6
Continuous
 62
125
 48
1
 60
0
 67
0
370
-1
100
AcDbLine
 10
3033.6020065497605
 20
1604.0441175926724
 30
0
 11
3033.3181861733924
 21
1604.3984751217047
 31
0
 39
0
210
0
220
0
230
1
  0
LINE
  5
F55
102
{ACAD_REACTORS
330
F86
330
F86
102
}
330
1F
100
AcDbEntity
  8
General
  6
Continuous
 62
125
 48
1
 60
0
 67
0
370
-1
100
AcDbLine
 10
3033.258869313186
 20
1604.3253530979034
 30
0
 11
3033.6491326646674
 21
1604.6379319152486
 31
0
 39
0
210
0
220
0
230
1
  0
LINE
  5
F56
102
{ACAD_REACTORS
330
F86
330
F86
102
}
330
1F
100
AcDbEntity
  8
General
  6
Continuous
 62
125
 48
1
 60
0
 67
0
370
-1
100
AcDbLine
 10
3033.5164366341805
 20
1604.0037896124027
 30
0
 11
3033.9066984246992
 21
1604.3163671793895
 31
0
 39
0
210
0
220
0
230
1
  0
LINE
  5
F57
102
{ACAD_REACTORS
330
F87
330
F87
102
}
330
1F
100
AcDbEntity
  8
General
  6
Continuous
 62
125
 48
1
 60
0
 67
0
370
-1
100
AcDbLine
 10
3033.0769311883955
 20
1605.2237709749475
 30
0
 11
3033.1139890492072
 21
1604.7793036831076
 31
0
 39
0
210
0
220
0
230
1
  0
LINE
  5
F58
102
{ACAD_REACTORS
330
F87
330
F87
102
}
330
1F
100
AcDbEntity
  8
General
  6
Continuous
 62
125
 48
1
 60
0
 67
0
370
-1
100
AcDbLine
 10
3033.5750778360843
 20
1604.8097314868985
 30
0
 11
3033.5370037747007
 21
1605.2661366621774
 31
0
 39
0
210
0
220
0
230
1
  0
LINE
  5
F59
102
{ACAD_REACTORS
330
F87
330
F87
102
}
330
1F
100
AcDbEntity
  8
General
  6
Continuous
 62
125
 48
1
 60
0
 67
0
370
-1
100
AcDbLine
 10
3033.1862521526373
 20
1604.7793014751016
 30
0
 11
3033.148526865614
 21
1605.2317391957376
 31
0
 39
0
210
0
220
0
230
1
  0
LINE
  5
F5A
102
{ACAD_REACTORS
330
F87
330
F87
102
}
330
1F
100
AcDbEntity
  8
General
  6
Continuous
 62
125
 48
1
 60
0
 67
0
370
-1
100
AcDbLine
 10
3033.0584972547103
 20
1605.2041726480074
 30
0
 11
3033.5567795234774
 21
1605.2457198905045
 31
0
 39
0
210
0
220
0
230
1
  0
LINE
  5
F5B
102
{ACAD_REACTORS
330
F87
330
F87
102
}
330
1F
100
AcDbEntity
  8
General
  6
Continuous
 62
125
 48
1
 60
0
 67
0
370
-1
100
AcDbLine
 10
3033.092741852032
 20
1604.7935982869105
 30
0
 11
3033.5910219076204
 21
1604.8351452103384
 31
0
 39
0
210
0
220
0
230
1
  0
LINE
  5
F5C
102
{ACAD_REACTORS
330
F88
330
F88
102
}
330
1F
100
AcDbEntity
  8
General
  6
Continuous
 62
125
 48
1
 60
0
 67
0
370
-1
100
AcDbLine
 10
3034.3909292943968
 20
1603.6339501219243
 30
0
 11
3033.9602943905074
 21
1603.7500450749624
 31
0
 39
0
210
0
220
0
230
1
  0
LINE
  5
F5D
102
{ACAD_REACTORS
330
F88
330
F88
102
}
330
1F
100
AcDbEntity
  8
General
  6
Continuous
 62
125
 48
1
 60
0
 67
0
370
-1
100
AcDbLine
 10
3034.072844709782
 20
1604.1982204270946
 30
0
 11
3034.5150422358442
 21
1604.0789867652286
 31
0
 39
0
210
0
220
0
230
1
  0
LINE
  5
F5E
102
{ACAD_REACTORS
330
F88
330
F88
102
}
330
1F
100
AcDbEntity
  8
General
  6
Continuous
 62
125
 48
1
 60
0
 67
0
370
-1
100
AcDbLine
 10
3033.9732398548686
 20
1603.8211391751006
 30
0
 11
3034.411596620821
 21
1603.7029595064723
 31
0
 39
0
210
0
220
0
230
1
  0
LINE
  5
F5F
102
{ACAD_REACTORS
330
F88
330
F88
102
}
330
1F
100
AcDbEntity
  8
General
  6
Continuous
 62
125
 48
1
 60
0
 67
0
370
-1
100
AcDbLine
 10
3034.368345244405
 20
1603.6193259974546
 30
0
 11
3034.4984991499973
 21
1604.1021006380333
 31
0
 39
0
210
0
220
0
230
1
  0
LINE
  5
F60
102
{ACAD_REACTORS
330
F88
330
F88
102
}
330
1F
100
AcDbEntity
  8
General
  6
Continuous
 62
125
 48
1
 60
0
 67
0
370
-1
100
AcDbLine
 10
3033.9705507359354
 20
1603.7265804960493
 30
0
 11
3034.1007039310743
 21
1604.2093530164145
 31
0
 39
0
210
0
220
0
230
1
  0
CIRCLE
  5
F61
330
1F
100
AcDbEntity
  8
General
  6
Continuous
 62
125
 48
1
 60
0
 67
0
370
-1
100
AcDbCircle
 10
3034.4976588764343
 20
1605.0697165959875
 30
0
 39
0
 40
0.9
210
0
220
0
230
1
  0
LINE
  5
F62
102
{ACAD_REACTORS
330
F89
330
F89
102
}
330
1F
100
AcDbEntity
  8
General
  6
Continuous
 62
125
 48
1
 60
0
 67
0
370
-1
100
AcDbLine
 10
3035.289984500016
 20
1603.8526088194506
 30
0
 11
3034.8748251249735
 21
1603.6896144886464
 31
0
 39
0
210
0
220
0
230
1
  0
LINE
  5
F63
102
{ACAD_REACTORS
330
F89
330
F89
102
}
330
1F
100
AcDbEntity
  8
General
  6
Continuous
 62
125
 48
1
 60
0
 67
0
370
-1
100
AcDbLine
 10
3034.698543146961
 20
1604.1167601135326
 30
0
 11
3035.12486244245
 21
1604.2841135612734
 31
0
 39
0
210
0
220
0
230
1
  0
LINE
  5
F64
102
{ACAD_REACTORS
330
F89
330
F89
102
}
330
1F
100
AcDbEntity
  8
General
  6
Continuous
 62
125
 48
1
 60
0
 67
0
370
-1
100
AcDbLine
 10
3034.84291701524
 20
1603.7544514276094
 30
0
 11
3035.2655225272056
 21
1603.9203660731125
 31
0
 39
0
210
0
220
0
230
1
  0
LINE
  5
F65
102
{ACAD_REACTORS
330
F89
330
F89
102
}
330
1F
100
AcDbEntity
  8
General
  6
Continuous
 62
125
 48
1
 60
0
 67
0
370
-1
100
AcDbLine
 10
3035.2805390272506
 20
1603.8274158169495
 30
0
 11
3035.0978120062823
 21
1604.2928427484164
 31
0
 39
0
210
0
220
0
230
1
  0
LINE
  5
F66
102
{ACAD_REACTORS
330
F89
330
F89
102
}
330
1F
100
AcDbEntity
  8
General
  6
Continuous
 62
125
 48
1
 60
0
 67
0
370
-1
100
AcDbLine
 10
3034.8970321437464
 20
1603.6768619437225
 30
0
 11
3034.7143058136744
 21
1604.1422867485285
 31
0
 39
0
210
0
220
0
230
1
  0
LINE
  5
F67
102
{ACAD_REACTORS
330
F8A
330
F8A
102
}
330
1F
100
AcDbEntity
  8
General
  6
Continuous
 62
125
 48
1
 60
0
 67
0
370
-1
100
AcDbLine
 10
3033.7568314896585
 20
1606.2904766957195
 30
0
 11
3034.1681815561196
 21
1606.4628601153506
 31
0
 39
0
210
0
220
0
230
1
  0
LINE
  5
F68
102
{ACAD_REACTORS
330
F8A
330
F8A
102
}
330
1F
100
AcDbEntity
  8
General
  6
Continuous
 62
125
 48
1
 60
0
 67
0
370
-1
100
AcDbLine
 10
3034.3541216360713
 20
1606.0398285570714
 30
0
 11
3033.9317142151435
 21
1605.8628347412355
 31
0
 39
0
210
0
220
0
230
1
  0
LINE
  5
F69
102
{ACAD_REACTORS
330
F8A
330
F8A
102
}
330
1F
100
AcDbEntity
  8
General
  6
Continuous
 62
125
 48
1
 60
0
 67
0
370
-1
100
AcDbLine
 10
3034.2015546084904
 20
1606.3987646268624
 30
0
 11
3033.782827157071
 21
1606.2232921622244
 31
0
 39
0
210
0
220
0
230
1
  0
LINE
  5
F6A
102
{ACAD_REACTORS
330
F8A
330
F8A
102
}
330
1F
100
AcDbEntity
  8
General
  6
Continuous
 62
125
 48
1
 60
0
 67
0
370
-1
100
AcDbLine
 10
3033.765703324944
 20
1606.3158777693295
 30
0
 11
3033.9589558531843
 21
1605.8547221980784
 31
0
 39
0
210
0
220
0
230
1
  0
LINE
  5
F6B
102
{ACAD_REACTORS
330
F8A
330
F8A
102
}
330
1F
100
AcDbEntity
  8
General
  6
Continuous
 62
125
 48
1
 60
0
 67
0
370
-1
100
AcDbLine
 10
3034.145691137923
 20
1606.4751048462906
 30
0
 11
3034.3389428932524
 21
1606.0139511196585
 31
0
 39
0
210
0
220
0
230
1
  0
LINE
  5
F6C
102
{ACAD_REACTORS
330
F8B
330
F8B
102
}
330
1F
100
AcDbEntity
  8
General
  6
Continuous
 62
125
 48
1
 60
0
 67
0
370
-1
100
AcDbLine
 10
3033.1762599131575
 20
1605.6138716245237
 30
0
 11
3033.4213676040695
 21
1605.9864929851806
 31
0
 39
0
210
0
220
0
230
1
  0
LINE
  5
F6D
102
{ACAD_REACTORS
330
F8B
330
F8B
102
}
330
1F
100
AcDbEntity
  8
General
  6
Continuous
 62
125
 48
1
 60
0
 67
0
370
-1
100
AcDbLine
 10
3033.8117572032015
 20
1605.7392589229685
 30
0
 11
3033.5600478722945
 21
1605.3566393587694
 31
0
 39
0
210
0
220
0
230
1
  0
LINE
  5
F6E
102
{ACAD_REACTORS
330
F8B
330
F8B
102
}
330
1F
100
AcDbEntity
  8
General
  6
Continuous
 62
125
 48
1
 60
0
 67
0
370
-1
100
AcDbLine
 10
3033.4848321932614
 20
1605.9519357567017
 30
0
 11
3033.2353265648803
 21
1605.5726337269923
 31
0
 39
0
210
0
220
0
230
1
  0
LINE
  5
F6F
102
{ACAD_REACTORS
330
F8B
330
F8B
102
}
330
1F
100
AcDbEntity
  8
General
  6
Continuous
 62
125
 48
1
 60
0
 67
0
370
-1
100
AcDbLine
 10
3033.1694434234914
 20
1605.6398992982336
 30
0
 11
3033.5871796370657
 21
1605.3651123833456
 31
0
 39
0
210
0
220
0
230
1
  0
LINE
  5
F70
102
{ACAD_REACTORS
330
F8B
330
F8B
102
}
330
1F
100
AcDbEntity
  8
General
  6
Continuous
 62
125
 48
1
 60
0
 67
0
370
-1
100
AcDbLine
 10
3033.3958714417777
 20
1605.9841003310155
 30
0
 11
3033.8136058642667
 21
1605.7093147547796
 31
0
 39
0
210
0
220
0
230
1
  0
LINE
  5
F71
102
{ACAD_REACTORS
330
F8C
330
F8C
102
}
330
1F
100
AcDbEntity
  8
General
  6
Continuous
 62
125
 48
1
 60
0
 67
0
370
-1
100
AcDbLine
 10
3035.0905680627866
 20
1606.3816904023126
 30
0
 11
3034.65685077153
 21
1606.4856796797876
 31
0
 39
0
210
0
220
0
230
1
  0
LINE
  5
F72
102
{ACAD_REACTORS
330
F8C
330
F8C
102
}
330
1F
100
AcDbEntity
  8
General
  6
Continuous
 62
125
 48
1
 60
0
 67
0
370
-1
100
AcDbLine
 10
3034.5413599360713
 20
1606.0382530516624
 30
0
 11
3034.986732913031
 21
1605.9314905602487
 31
0
 39
0
210
0
220
0
230
1
  0
LINE
  5
F73
102
{ACAD_REACTORS
330
F8C
330
F8C
102
}
330
1F
100
AcDbEntity
  8
General
  6
Continuous
 62
125
 48
1
 60
0
 67
0
370
-1
100
AcDbLine
 10
3034.6342197477084
 20
1606.4170517490145
 30
0
 11
3035.0757155961933
 21
1606.3112004188124
 31
0
 39
0
210
0
220
0
230
1
  0
LINE
  5
F74
102
{ACAD_REACTORS
330
F8C
330
F8C
102
}
330
1F
100
AcDbEntity
  8
General
  6
Continuous
 62
125
 48
1
 60
0
 67
0
370
-1
100
AcDbLine
 10
3035.077727954983
 20
1606.4053343436474
 30
0
 11
3034.961150301783
 21
1605.9191028725375
 31
0
 39
0
210
0
220
0
230
1
  0
LINE
  5
F75
102
{ACAD_REACTORS
330
F8C
330
F8C
102
}
330
1F
100
AcDbEntity
  8
General
  6
Continuous
 62
125
 48
1
 60
0
 67
0
370
-1
100
AcDbLine
 10
3034.677079908742
 20
1606.5013819437277
 30
0
 11
3034.5605026455696
 21
1606.0151526744135
 31
0
 39
0
210
0
220
0
230
1
  0
LINE
  5
F76
102
{ACAD_REACTORS
330
F8D
330
F8D
102
}
330
1F
100
AcDbEntity
  8
General
  6
Continuous
 62
125
 48
1
 60
0
 67
0
370
-1
100
AcDbLine
 10
3035.775572650144
 20
1605.7596931321664
 30
0
 11
3035.4889183076766
 21
1606.1013856057516
 31
0
 39
0
210
0
220
0
230
1
  0
LINE
  5
F77
102
{ACAD_REACTORS
330
F8D
330
F8D
102
}
330
1F
100
AcDbEntity
  8
General
  6
Continuous
 62
125
 48
1
 60
0
 67
0
370
-1
100
AcDbLine
 10
3035.129823926366
 20
1605.8105592899826
 30
0
 11
3035.4241945237764
 21
1605.4597013849066
 31
0
 39
0
210
0
220
0
230
1
  0
LINE
  5
F78
102
{ACAD_REACTORS
330
F8D
330
F8D
102
}
330
1F
100
AcDbEntity
  8
General
  6
Continuous
 62
125
 48
1
 60
0
 67
0
370
-1
100
AcDbLine
 10
3035.429888016678
 20
1606.0597037048187
 30
0
 11
3035.721685156709
 21
1605.7118854801674
 31
0
 39
0
210
0
220
0
230
1
  0
LINE
  5
F79
102
{ACAD_REACTORS
330
F8D
330
F8D
102
}
330
1F
100
AcDbEntity
  8
General
  6
Continuous
 62
125
 48
1
 60
0
 67
0
370
-1
100
AcDbLine
 10
3035.7793256874247
 20
1605.7863355615207
 30
0
 11
3035.3962633998553
 21
1605.4649717854436
 31
0
 39
0
210
0
220
0
230
1
  0
LINE
  5
F7A
102
{ACAD_REACTORS
330
F8D
330
F8D
102
}
330
1F
100
AcDbEntity
  8
General
  6
Continuous
 62
125
 48
1
 60
0
 67
0
370
-1
100
AcDbLine
 10
3035.5145199373324
 20
1606.1019649536113
 30
0
 11
3035.1314592735825
 21
1605.7806027148265
 31
0
 39
0
210
0
220
0
230
1
  0
LINE
  5
F7B
102
{ACAD_REACTORS
330
F8E
330
F8E
102
}
330
1F
100
AcDbEntity
  8
General
  6
Continuous
 62
125
 48
1
 60
0
 67
0
370
-1
100
AcDbLine
 10
3035.9301795983474
 20
1604.8811611998544
 30
0
 11
3035.9393439252804
 21
1605.3270765210493
 31
0
 39
0
210
0
220
0
230
1
  0
LINE
  5
F7C
102
{ACAD_REACTORS
330
F8E
330
F8E
102
}
330
1F
100
AcDbEntity
  8
General
  6
Continuous
 62
125
 48
1
 60
0
 67
0
370
-1
100
AcDbLine
 10
3035.477582974358
 20
1605.3445563619216
 30
0
 11
3035.4681932607045
 21
1604.8866621039865
 31
0
 39
0
210
0
220
0
230
1
  0
LINE
  5
F7D
102
{ACAD_REACTORS
330
F8E
330
F8E
102
}
330
1F
100
AcDbEntity
  8
General
  6
Continuous
 62
125
 48
1
 60
0
 67
0
370
-1
100
AcDbLine
 10
3035.8674694918277
 20
1605.3345613013744
 30
0
 11
3035.858143694225
 21
1604.8806492858614
 31
0
 39
0
210
0
220
0
230
1
  0
LINE
  5
F7E
102
{ACAD_REACTORS
330
F8E
330
F8E
102
}
330
1F
100
AcDbEntity
  8
General
  6
Continuous
 62
125
 48
1
 60
0
 67
0
370
-1
100
AcDbLine
 10
3035.9505437789194
 20
1604.8987454109676
 30
0
 11
3035.4506378972064
 21
1604.9090168354205
 31
0
 39
0
210
0
220
0
230
1
  0
LINE
  5
F7F
102
{ACAD_REACTORS
330
F8E
330
F8E
102
}
330
1F
100
AcDbEntity
  8
General
  6
Continuous
 62
125
 48
1
 60
0
 67
0
370
-1
100
AcDbLine
 10
3035.958996756023
 20
1605.3106586853476
 30
0
 11
3035.459093108648
 21
1605.3209301980035
 31
0
 39
0
210
0
220
0
230
1
  0
LINE
  5
F80
102
{ACAD_REACTORS
330
F8F
330
F8F
102
}
330
1F
100
AcDbEntity
  8
General
  6
Continuous
 62
125
 48
1
 60
0
 67
0
370
-1
100
AcDbLine
 10
3035.5930326622615
 20
1604.1106547866204
 30
0
 11
3035.8344545913633
 21
1604.4856746670384
 31
0
 39
0
210
0
220
0
230
1
  0
LINE
  5
F81
102
{ACAD_REACTORS
330
F8F
330
F8F
102
}
330
1F
100
AcDbEntity
  8
General
  6
Continuous
 62
125
 48
1
 60
0
 67
0
370
-1
100
AcDbLine
 10
3035.450294258814
 20
1604.7424811302083
 30
0
 11
3035.2024045605854
 21
1604.3573759294063
 31
0
 39
0
210
0
220
0
230
1
  0
LINE
  5
F82
102
{ACAD_REACTORS
330
F8F
330
F8F
102
}
330
1F
100
AcDbEntity
  8
General
  6
Continuous
 62
125
 48
1
 60
0
 67
0
370
-1
100
AcDbLine
 10
3035.777154784947
 20
1604.5297052053704
 30
0
 11
3035.5314058340223
 21
1604.1479585073516
 31
0
 39
0
210
0
220
0
230
1
  0
LINE
  5
F83
102
{ACAD_REACTORS
330
F8F
330
F8F
102
}
330
1F
100
AcDbEntity
  8
General
  6
Continuous
 62
125
 48
1
 60
0
 67
0
370
-1
100
AcDbLine
 10
3035.619590838053
 20
1604.1149638038385
 30
0
 11
3035.199162968833
 21
1604.3856145003356
 31
0
 39
0
210
0
220
0
230
1
  0
LINE
  5
F84
102
{ACAD_REACTORS
330
F8F
330
F8F
102
}
330
1F
100
AcDbEntity
  8
General
  6
Continuous
 62
125
 48
1
 60
0
 67
0
370
-1
100
AcDbLine
 10
3035.8425931125153
 20
1604.4613941489495
 30
0
 11
3035.4221671926703
 21
1604.7320437499995
 31
0
 39
0
210
0
220
0
230
1
  0
CIRCLE
  5
105E
330
1F
100
AcDbEntity
  8
0
  6
ByLayer
 62
256
 48
1
 60
0
 67
0
370
-1
100
AcDbCircle
 10
3035.4149376484243
 20
1600.5433004213264
 30
0
 39
0
 40
0.3243919359774736
210
0
220
0
230
1
  0
CIRCLE
  5
105F
330
1F
100
AcDbEntity
  8
0
  6
ByLayer
 62
256
 48
1
 60
0
 67
0
370
-1
100
AcDbCircle
 10
3035.156435980426
 20
1601.24220921344
 30
0
 39
0
 40
0.2662623264550348
210
0
220
0
230
1
  0
CIRCLE
  5
1060
330
1F
100
AcDbEntity
  8
0
  6
ByLayer
 62
256
 48
1
 60
0
 67
0
370
-1
100
AcDbCircle
 10
3036.0693447124368
 20
1600.133828547732
 30
0
 39
0
 40
0.29501350947998617
210
0
220
0
230
1
  0
CIRCLE
  5
1061
330
1F
100
AcDbEntity
  8
0
  6
ByLayer
 62
256
 48
1
 60
0
 67
0
370
-1
100
AcDbCircle
 10
3036.8259402227495
 20
1600.2043413868669
 30
0
 39
0
 40
0.3079904023469453
210
0
220
0
230
1
  0
CIRCLE
  5
1062
330
1F
100
AcDbEntity
  8
0
  6
ByLayer
 62
256
 48
1
 60
0
 67
0
370
-1
100
AcDbCircle
 10
3035.8871529621256
 20
1602.384402562982
 30
0
 39
0
 40
0.31019132410608563
210
0
220
0
230
1
  0
CIRCLE
  5
1063
330
1F
100
AcDbEntity
  8
0
  6
ByLayer
 62
256
 48
1
 60
0
 67
0
370
-1
100
AcDbCircle
 10
3035.3232010431398
 20
1601.8910552127725
 30
0
 39
0
 40
0.32208122038764486
210
0
220
0
230
1
  0
CIRCLE
  5
1064
330
1F
100
AcDbEntity
  8
0
  6
ByLayer
 62
256
 48
1
 60
0
 67
0
370
-1
100
AcDbCircle
 10
3036.64764039869
 20
1602.42973144893
 30
0
 39
0
 40
0.2911395355951072
210
0
220
0
230
1
  0
CIRCLE
  5
1065
330
1F
100
AcDbEntity
  8
0
  6
ByLayer
 62
256
 48
1
 60
0
 67
0
370
-1
100
AcDbCircle
 10
3037.286251206156
 20
1602.0003222100563
 30
0
 39
0
 40
0.3247508805293364
210
0
220
0
230
1
  0
CIRCLE
  5
1066
330
1F
100
AcDbEntity
  8
0
  6
ByLayer
 62
256
 48
1
 60
0
 67
0
370
-1
100
AcDbCircle
 10
3037.5364937258755
 20
1601.3323478216855
 30
0
 39
0
 40
0.25417942940839566
210
0
220
0
230
1
  0
CIRCLE
  5
1067
330
1F
100
AcDbEntity
  8
0
  6
ByLayer
 62
256
 48
1
 60
0
 67
0
370
-1
100
AcDbCircle
 10
3037.352554439935
 20
1600.6460569992119
 30
0
 39
0
 40
0.32171507184102666
210
0
220
0
230
1
  0
CIRCLE
  5
1068
330
1F
100
AcDbEntity
  8
0
  6
ByLayer
 62
256
 48
1
 60
0
 67
0
370
-1
100
AcDbCircle
 10
3038.242116738512
 20
1603.814355243274
 30
0
 39
0
 40
0.3243919359774736
210
0
220
0
230
1
  0
CIRCLE
  5
1069
330
1F
100
AcDbEntity
  8
0
  6
ByLayer
 62
256
 48
1
 60
0
 67
0
370
-1
100
AcDbCircle
 10
3037.9836150705123
 20
1604.5132640353881
 30
0
 39
0
 40
0.26626232645526215
210
0
220
0
230
1
  0
CIRCLE
  5
106A
330
1F
100
AcDbEntity
  8
0
  6
ByLayer
 62
256
 48
1
 60
0
 67
0
370
-1
100
AcDbCircle
 10
3038.896523802523
 20
1603.40488336968
 30
0
 39
0
 40
0.29501350947998617
210
0
220
0
230
1
  0
CIRCLE
  5
106B
330
1F
100
AcDbEntity
  8
0
  6
ByLayer
 62
256
 48
1
 60
0
 67
0
370
-1
100
AcDbCircle
 10
3039.6531193128367
 20
1603.475396208815
 30
0
 39
0
 40
0.307990402347059
210
0
220
0
230
1
  0
CIRCLE
  5
106C
330
1F
100
AcDbEntity
  8
0
  6
ByLayer
 62
256
 48
1
 60
0
 67
0
370
-1
100
AcDbCircle
 10
3038.714332052212
 20
1605.65545738493
 30
0
 39
0
 40
0.31019132410597194
210
0
220
0
230
1
  0
CIRCLE
  5
106D
330
1F
100
AcDbEntity
  8
0
  6
ByLayer
 62
256
 48
1
 60
0
 67
0
370
-1
100
AcDbCircle
 10
3038.1503801332265
 20
1605.1621100347204
 30
0
 39
0
 40
0.32208122038764486
210
0
220
0
230
1
  0
CIRCLE
  5
106E
330
1F
100
AcDbEntity
  8
0
  6
ByLayer
 62
256
 48
1
 60
0
 67
0
370
-1
100
AcDbCircle
 10
3039.474819488776
 20
1605.7007862708779
 30
0
 39
0
 40
0.2911395355951072
210
0
220
0
230
1
  0
CIRCLE
  5
106F
330
1F
100
AcDbEntity
  8
0
  6
ByLayer
 62
256
 48
1
 60
0
 67
0
370
-1
100
AcDbCircle
 10
3040.1134302962428
 20
1605.2713770320047
 30
0
 39
0
 40
0.3247508805288817
210
0
220
0
230
1
  0
CIRCLE
  5
1070
330
1F
100
AcDbEntity
  8
0
  6
ByLayer
 62
256
 48
1
 60
0
 67
0
370
-1
100
AcDbCircle
 10
3040.3636728159618
 20
1604.6034026436337
 30
0
 39
0
 40
0.2541794294079409
210
0
220
0
230
1
  0
CIRCLE
  5
1071
330
1F
100
AcDbEntity
  8
0
  6
ByLayer
 62
256
 48
1
 60
0
 67
0
370
-1
100
AcDbCircle
 10
3040.1797335300216
 20
1603.9171118211596
 30
0
 39
0
 40
0.32171507184125403
210
0
220
0
230
1
  0
CIRCLE
  5
1072
330
1F
100
AcDbEntity
  8
0
  6
ByLayer
 62
256
 48
1
 60
0
 67
0
370
-1
100
AcDbCircle
 10
3033.5832612491636
 20
1604.323811380529
 30
0
 39
0
 40
0.3243919359774736
210
0
220
0
230
1
  0
CIRCLE
  5
1073
330
1F
100
AcDbEntity
  8
0
  6
ByLayer
 62
256
 48
1
 60
0
 67
0
370
-1
100
AcDbCircle
 10
3033.3247595811654
 20
1605.0227201726425
 30
0
 39
0
 40
0.2662623264550348
210
0
220
0
230
1
  0
CIRCLE
  5
1074
330
1F
100
AcDbEntity
  8
0
  6
ByLayer
 62
256
 48
1
 60
0
 67
0
370
-1
100
AcDbCircle
 10
3034.237668313176
 20
1603.9143395069345
 30
0
 39
0
 40
0.29501350947998617
210
0
220
0
230
1
  0
CIRCLE
  5
1075
330
1F
100
AcDbEntity
  8
0
  6
ByLayer
 62
256
 48
1
 60
0
 67
0
370
-1
100
AcDbCircle
 10
3034.994263823489
 20
1603.9848523460696
 30
0
 39
0
 40
0.3079904023469453
210
0
220
0
230
1
  0
CIRCLE
  5
1076
330
1F
100
AcDbEntity
  8
0
  6
ByLayer
 62
256
 48
1
 60
0
 67
0
370
-1
100
AcDbCircle
 10
3034.055476562865
 20
1606.1649135221846
 30
0
 39
0
 40
0.31019132410608563
210
0
220
0
230
1
  0
CIRCLE
  5
1077
330
1F
100
AcDbEntity
  8
0
  6
ByLayer
 62
256
 48
1
 60
0
 67
0
370
-1
100
AcDbCircle
 10
3033.491524643879
 20
1605.671566171975
 30
0
 39
0
 40
0.32208122038764486
210
0
220
0
230
1
  0
CIRCLE
  5
1078
330
1F
100
AcDbEntity
  8
0
  6
ByLayer
 62
256
 48
1
 60
0
 67
0
370
-1
100
AcDbCircle
 10
3034.815963999429
 20
1606.2102424081327
 30
0
 39
0
 40
0.2911395355951072
210
0
220
0
230
1
  0
CIRCLE
  5
1079
330
1F
100
AcDbEntity
  8
0
  6
ByLayer
 62
256
 48
1
 60
0
 67
0
370
-1
100
AcDbCircle
 10
3035.4545748068954
 20
1605.780833169259
 30
0
 39
0
 40
0.3247508805293364
210
0
220
0
230
1
  0
CIRCLE
  5
107A
330
1F
100
AcDbEntity
  8
0
  6
ByLayer
 62
256
 48
1
 60
0
 67
0
370
-1
100
AcDbCircle
 10
3035.704817326615
 20
1605.112858780888
 30
0
 39
0
 40
0.25417942940839566
210
0
220
0
230
1
  0
CIRCLE
  5
107B
330
1F
100
AcDbEntity
  8
0
  6
ByLayer
 62
256
 48
1
 60
0
 67
0
370
-1
100
AcDbCircle
 10
3035.5208780406742
 20
1604.4265679584144
 30
0
 39
0
 40
0.32171507184102666
210
0
220
0
230
1
  0
VIEWPORT
  5
D39
102
{ACAD_XDICTIONARY
360
D3A
102
}
330
D6
100
AcDbEntity
  8
0
  6
ByLayer
 62
256
 48
1
 60
0
 67
1
370
-1
100
AcDbViewport
 10
128.5
 20
97.5
 30
0
 40
411.033
 41
222.18
 68
1
 69
1
 12
128.5
 22
97.5
 13
0
 23
0
 14
0.5
 24
0.5
 15
0.5
 25
0.5
 16
0
 26
0
 36
1
 17
0
 27
0
 37
0
 42
50
 43
0
 44
0
 45
222.18
 50
0
 51
0
 72
1000
 90
819232
110
0
120
0
130
0
111
1
121
0
131
0
112
0
122
1
132
0
  0
VIEWPORT
  5
D3D
102
{ACAD_XDICTIONARY
360
D3E
102
}
330
D6
100
AcDbEntity
  8
0
  6
ByLayer
 62
256
 48
1
 60
0
 67
1
370
-1
100
AcDbViewport
 10
128.5
 20
97.5
 30
0
 40
205.6
 41
156
 68
1
 69
2
 12
3044.0190207009273
 22
1597.6030113786042
 13
0
 23
0
 14
10
 24
10
 15
10
 25
10
 16
0
 26
0
 36
1
 17
0
 27
0
 37
0
 42
50
 43
0
 44
0
 45
23.81042046966712
 50
0
 51
0
 72
1000
 90
819296
110
0
120
0
130
0
111
1
121
0
131
0
112
0
122
1
132
0
  0
ENDSEC
  0
SECTION
  2
OBJECTS
  0
DICTIONARY
  5
C
330
0
100
AcDbDictionary
280
0
281
1
  3
ACAD_CIP_PREVIOUS_PRODUCT_INFO
350
216
  3
ACAD_COLOR
350
6B
  3
ACAD_DETAILVIEWSTYLE
350
21B
  3
ACAD_GROUP
350
D
  3
ACAD_LAST_SAVED_VERSION_INFO
350
CD9
  3
ACAD_LAYOUT
350
1A
  3
ACAD_MLEADERSTYLE
350
12D
  3
ACAD_MLINESTYLE
350
17
  3
ACAD_PLOTSETTINGS
350
19
  3
ACAD_PLOTSTYLENAME
350
E
  3
ACAD_SCALELIST
350
10C
  3
ACAD_SECTIONVIEWSTYLE
350
219
  3
ACAD_TABLESTYLE
350
7E
  3
ACAD_VISUALSTYLE
350
EF
  3
AcDbVariableDictionary
350
5E
  3
AEC_PROPERTY_SET_DEFS
350
7D5
  3
ACAD_IMAGE_DICT
350
105C
  3
ACAD_PDFDEFINITIONS
350
105D
  0
DICTIONARY
  5
1FF
330
2
100
AcDbDictionary
280
1
281
1
  3
ACAD_LAYERFILTERS
360
100A
  3
ACAD_LAYERSTATES
360
200
  3
ACLYDICTIONARY
360
1009
  0
DICTIONARY
  5
13C
330
10
100
AcDbDictionary
280
1
281
1
  0
DICTIONARY
  5
1CE
330
1F
100
AcDbDictionary
280
1
281
1
  3
ACAD_SORTENTS
360
E5C
  0
DICTIONARY
  5
D1B
330
D1A
100
AcDbDictionary
280
1
281
1
  3
ASDK_XREC_ANNOTATION_SCALE_INFO
360
D1C
  0
DICTIONARY
  5
D1F
330
D1E
100
AcDbDictionary
280
1
281
1
  3
ASDK_XREC_ANNOTATION_SCALE_INFO
360
D20
  0
DICTIONARY
  5
D3A
330
D39
100
AcDbDictionary
280
1
281
1
  3
ASDK_XREC_ANNOTATION_SCALE_INFO
360
D3B
  0
DICTIONARY
  5
D3E
330
D3D
100
AcDbDictionary
280
1
281
1
  3
ASDK_XREC_ANNOTATION_SCALE_INFO
360
D3F
  0
XRECORD
  5
216
102
{ACAD_REACTORS
330
C
102
}
330
C
100
AcDbXrecord
280
1
300
ACD
300
2027
300

  0
DICTIONARY
  5
6B
102
{ACAD_REACTORS
330
C
102
}
330
C
100
AcDbDictionary
280
0
281
1
  0
DICTIONARY
  5
21B
102
{ACAD_REACTORS
330
C
102
}
330
C
100
AcDbDictionary
280
0
281
1
  0
DICTIONARY
  5
D
102
{ACAD_REACTORS
330
C
102
}
330
C
100
AcDbDictionary
280
0
281
1
  3
*A1
350
E2C
  3
*A10
350
DEB
  3
*A11
350
DEC
  3
*A12
350
DED
  3
*A13
350
DF1
  3
*A14
350
DEE
  3
*A15
350
DEF
  3
*A16
350
F86
  3
*A17
350
F87
  3
*A18
350
F88
  3
*A19
350
F89
  3
*A2
350
E2D
  3
*A20
350
F8A
  3
*A21
350
F8B
  3
*A22
350
F8C
  3
*A23
350
F8D
  3
*A24
350
DF2
  3
*A25
350
F8E
  3
*A26
350
F8F
  3
*A27
350
DF3
  3
*A28
350
DF4
  3
*A29
350
E29
  3
*A3
350
E2E
  3
*A30
350
E2A
  3
*A31
350
E2B
  3
*A4
350
E2F
  3
*A5
350
E30
  3
*A6
350
E31
  3
*A7
350
E32
  3
*A8
350
DF0
  0
XRECORD
  5
CD9
102
{ACAD_REACTORS
330
C
102
}
330
C
100
AcDbXrecord
280
1
300
{E5CDC2BC-4378-774C-9B39-C752B9334B35}
301
{13859124-FBE3-8744-86D8-22DCBB35D3C3}
302
{E5CDC2BC-4378-774C-9B39-C752B9334B35}
303
C:\Users\mmuthu\Downloads\CEO_3.dwg
  0
DICTIONARY
  5
1A
102
{ACAD_REACTORS
330
C
102
}
330
C
100
AcDbDictionary
280
0
281
1
  3
Layout1
350
D3
  3
Layout2
350
D7
  3
Model
350
22
  0
DICTIONARY
  5
12D
102
{ACAD_REACTORS
330
C
102
}
330
C
100
AcDbDictionary
280
0
281
1
  3
Annotative
350
13B
  3
Standard
350
12E
  0
DICTIONARY
  5
17
102
{ACAD_REACTORS
330
C
102
}
330
C
100
AcDbDictionary
280
0
281
1
  3
STANDARD
350
18
  0
DICTIONARY
  5
19
102
{ACAD_REACTORS
330
C
102
}
330
C
100
AcDbDictionary
280
0
281
1
  0
ACDBDICTIONARYWDFLT
  5
E
102
{ACAD_REACTORS
330
C
102
}
330
C
100
AcDbDictionary
280
0
281
1
  3
Normal
350
F
100
AcDbDictionaryWithDefault
340
F
  0
DICTIONARY
  5
10C
102
{ACAD_REACTORS
330
C
102
}
330
C
100
AcDbDictionary
280
0
281
1
  3
1:1_1
350
33D
  3
1:100_1
350
33E
  3
1:1
350
10D
  3
1:2
350
1BE
  3
1:4
350
1BF
  3
1:5
350
1C0
  3
1:8
350
1C1
  3
1:10
350
1C2
  3
1:16
350
1C3
  3
1:20
350
1C4
  3
1:30
350
1C5
  3
1:40
350
1C6
  3
1:50
350
1C7
  3
1:100
350
1C8
  3
2:1
350
1C9
  3
4:1
350
1CA
  3
8:1
350
1CB
  3
10:1
350
1CC
  3
100:1
350
1CD
  0
DICTIONARY
  5
219
102
{ACAD_REACTORS
330
C
102
}
330
C
100
AcDbDictionary
280
0
281
1
  0
DICTIONARY
  5
7E
102
{ACAD_REACTORS
330
C
102
}
330
C
100
AcDbDictionary
280
0
281
1
  3
Standard
350
7F
  0
DICTIONARY
  5
EF
102
{ACAD_REACTORS
330
C
102
}
330
C
100
AcDbDictionary
280
0
281
1
  0
DICTIONARY
  5
5E
102
{ACAD_REACTORS
330
C
102
}
330
C
100
AcDbDictionary
280
0
281
1
  3
CANNOSCALE
350
146
  3
CENTEREXE
350
259
  3
CENTERLTYPEFILE
350
25A
  3
CMLEADERSTYLE
350
145
  3
CTABLESTYLE
350
84
  3
CVIEWDETAILSTYLE
350
227
  3
CVIEWSECTIONSTYLE
350
228
  3
DIMASSOC
350
5F
  3
HIDETEXT
350
63
  3
LAYEREVAL
350
1AE
  3
LAYERNOTIFY
350
1AF
  0
DICTIONARY
  5
7D5
102
{ACAD_REACTORS
330
C
102
}
330
C
100
AcDbDictionary
280
0
281
1
  0
DICTIONARY
  5
105C
330
C
100
AcDbDictionary
280
0
281
0
  0
DICTIONARY
  5
105D
330
C
100
AcDbDictionary
280
0
281
0
  0
DICTIONARY
  5
100A
102
{ACAD_REACTORS
330
1FF
102
}
330
1FF
100
AcDbDictionary
280
0
281
1
  0
DICTIONARY
  5
200
102
{ACAD_REACTORS
330
1FF
102
}
330
1FF
100
AcDbDictionary
280
0
281
1
  0
DICTIONARY
  5
1009
102
{ACAD_REACTORS
330
1FF
102
}
330
1FF
100
AcDbDictionary
280
0
281
1
  0
SORTENTSTABLE
  5
E5C
102
{ACAD_REACTORS
330
1CE
102
}
330
1CE
100
AcDbSortentsTable
330
1F
  0
XRECORD
  5
D1C
102
{ACAD_REACTORS
330
D1B
102
}
330
D1B
100
AcDbXrecord
280
1
 90
1
340
10D
  0
XRECORD
  5
D20
102
{ACAD_REACTORS
330
D1F
102
}
330
D1F
100
AcDbXrecord
280
1
 90
1
340
10D
  0
XRECORD
  5
D3B
102
{ACAD_REACTORS
330
D3A
102
}
330
D3A
100
AcDbXrecord
280
1
 90
1
340
10D
  0
XRECORD
  5
D3F
102
{ACAD_REACTORS
330
D3E
102
}
330
D3E
100
AcDbXrecord
280
1
 90
1
340
10D
  0
GROUP
  5
E2C
102
{ACAD_REACTORS
330
D
102
}
330
D
100
AcDbGroup
300

 70
1
 71
1
340
E09
340
E06
340
E08
340
E07
340
E05
  0
GROUP
  5
DEB
102
{ACAD_REACTORS
330
D
102
}
330
D
100
AcDbGroup
300

 70
1
 71
1
340
DBA
340
DB9
340
DB7
340
DBB
340
DB8
  0
GROUP
  5
DEC
102
{ACAD_REACTORS
330
D
102
}
330
D
100
AcDbGroup
300

 70
1
 71
1
340
DBF
340
DBE
340
DBC
340
DC0
340
DBD
  0
GROUP
  5
DED
102
{ACAD_REACTORS
330
D
102
}
330
D
100
AcDbGroup
300

 70
1
 71
1
340
DC5
340
DC4
340
DC2
340
DC3
340
DC1
  0
GROUP
  5
DF1
102
{ACAD_REACTORS
330
D
102
}
330
D
100
AcDbGroup
300

 70
1
 71
1
340
DDA
340
DD9
340
DD8
340
DD7
340
DD6
  0
GROUP
  5
DEE
102
{ACAD_REACTORS
330
D
102
}
330
D
100
AcDbGroup
300

 70
1
 71
1
340
DCB
340
DC8
340
DCA
340
DC9
340
DC7
  0
GROUP
  5
DEF
102
{ACAD_REACTORS
330
D
102
}
330
D
100
AcDbGroup
300

 70
1
 71
1
340
DCC
340
DCE
340
DCF
340
DD0
340
DCD
  0
GROUP
  5
F86
102
{ACAD_REACTORS
330
D
102
}
330
D
100
AcDbGroup
300

 70
1
 71
1
340
F55
340
F54
340
F52
340
F56
340
F53
  0
GROUP
  5
F87
102
{ACAD_REACTORS
330
D
102
}
330
D
100
AcDbGroup
300

 70
1
 71
1
340
F5A
340
F59
340
F57
340
F5B
340
F58
  0
GROUP
  5
F88
102
{ACAD_REACTORS
330
D
102
}
330
D
100
AcDbGroup
300

 70
1
 71
1
340
F60
340
F5F
340
F5D
340
F5E
340
F5C
  0
GROUP
  5
F89
102
{ACAD_REACTORS
330
D
102
}
330
D
100
AcDbGroup
300

 70
1
 71
1
340
F66
340
F63
340
F65
340
F64
340
F62
  0
GROUP
  5
E2D
102
{ACAD_REACTORS
330
D
102
}
330
D
100
AcDbGroup
300

 70
1
 71
1
340
E0A
340
E0C
340
E0D
340
E0E
340
E0B
  0
GROUP
  5
F8A
102
{ACAD_REACTORS
330
D
102
}
330
D
100
AcDbGroup
300

 70
1
 71
1
340
F67
340
F69
340
F6A
340
F6B
340
F68
  0
GROUP
  5
F8B
102
{ACAD_REACTORS
330
D
102
}
330
D
100
AcDbGroup
300

 70
1
 71
1
340
F6F
340
F6C
340
F6E
340
F70
340
F6D
  0
GROUP
  5
F8C
102
{ACAD_REACTORS
330
D
102
}
330
D
100
AcDbGroup
300

 70
1
 71
1
340
F75
340
F74
340
F73
340
F72
340
F71
  0
GROUP
  5
F8D
102
{ACAD_REACTORS
330
D
102
}
330
D
100
AcDbGroup
300

 70
1
 71
1
340
F7A
340
F79
340
F78
340
F77
340
F76
  0
GROUP
  5
DF2
102
{ACAD_REACTORS
330
D
102
}
330
D
100
AcDbGroup
300

 70
1
 71
1
340
DDF
340
DDE
340
DDD
340
DDC
340
DDB
  0
GROUP
  5
F8E
102
{ACAD_REACTORS
330
D
102
}
330
D
100
AcDbGroup
300

 70
1
 71
1
340
F7F
340
F7E
340
F7D
340
F7C
340
F7B
  0
GROUP
  5
F8F
102
{ACAD_REACTORS
330
D
102
}
330
D
100
AcDbGroup
300

 70
1
 71
1
340
F84
340
F83
340
F82
340
F81
340
F80
  0
GROUP
  5
DF3
102
{ACAD_REACTORS
330
D
102
}
330
D
100
AcDbGroup
300

 70
1
 71
1
340
DE4
340
DE3
340
DE2
340
DE1
340
DE0
  0
GROUP
  5
DF4
102
{ACAD_REACTORS
330
D
102
}
330
D
100
AcDbGroup
300

 70
1
 71
1
340
DE9
340
DE8
340
DE7
340
DE6
340
DE5
  0
GROUP
  5
E29
102
{ACAD_REACTORS
330
D
102
}
330
D
100
AcDbGroup
300

 70
1
 71
1
340
DF8
340
DF7
340
DF5
340
DF9
340
DF6
  0
GROUP
  5
E2E
102
{ACAD_REACTORS
330
D
102
}
330
D
100
AcDbGroup
300

 70
1
 71
1
340
E12
340
E0F
340
E11
340
E13
340
E10
  0
GROUP
  5
E2A
102
{ACAD_REACTORS
330
D
102
}
330
D
100
AcDbGroup
300

 70
1
 71
1
340
DFD
340
DFC
340
DFA
340
DFE
340
DFB
  0
GROUP
  5
E2B
102
{ACAD_REACTORS
330
D
102
}
330
D
100
AcDbGroup
300

 70
1
 71
1
340
E03
340
E02
340
E00
340
E01
340
DFF
  0
GROUP
  5
E2F
102
{ACAD_REACTORS
330
D
102
}
330
D
100
AcDbGroup
300

 70
1
 71
1
340
E18
340
E17
340
E16
340
E15
340
E14
  0
GROUP
  5
E30
102
{ACAD_REACTORS
330
D
102
}
330
D
100
AcDbGroup
300

 70
1
 71
1
340
E1D
340
E1C
340
E1B
340
E1A
340
E19
  0
GROUP
  5
E31
102
{ACAD_REACTORS
330
D
102
}
330
D
100
AcDbGroup
300

 70
1
 71
1
340
E22
340
E21
340
E20
340
E1F
340
E1E
  0
GROUP
  5
E32
102
{ACAD_REACTORS
330
D
102
}
330
D
100
AcDbGroup
300

 70
1
 71
1
340
E27
340
E26
340
E25
340
E24
340
E23
  0
GROUP
  5
DF0
102
{ACAD_REACTORS
330
D
102
}
330
D
100
AcDbGroup
300

 70
1
 71
1
340
DD4
340
DD1
340
DD3
340
DD5
340
DD2
  0
LAYOUT
  5
D3
102
{ACAD_REACTORS
330
1A
102
}
330
1A
100
AcDbPlotSettings
  1

  2
none_device
  4
ISO_A4_(210.00_x_297.00_MM)
  7

 40
7.5
 41
20
 42
7.5
 43
20
 44
210
 45
297
 46
0
 47
0
 48
0
 49
0
140
0
141
0
142
1
143
1
 70
688
 72
1
 73
1
 74
5
 75
16
 76
0
 77
2
 78
300
147
1
148
0
149
0
100
AcDbLayout
  1
Layout1
 71
1
 10
-20
 20
-7.5
 11
277
 21
202.5
 12
0
 22
0
 32
0
 13
0
 23
0
 33
0
 14
25.699999999999992
 24
19.5
 34
0
 15
231.3
 25
175.5
 35
0
 16
1
 26
0
 36
0
 17
0
 27
1
 37
0
146
0
 76
0
330
D2
1001
ACAD_PSEXT
1000
None
1000
None
1000
Not applicable
1000
The layout will not be plotted unless a new plotter configuration name is selected.
1070
0
  0
LAYOUT
  5
D7
102
{ACAD_REACTORS
330
1A
102
}
330
1A
100
AcDbPlotSettings
  1

  2
none_device
  4
ISO_A4_(210.00_x_297.00_MM)
  7

 40
7.5
 41
20
 42
7.5
 43
20
 44
210
 45
297
 46
0
 47
0
 48
0
 49
0
140
0
141
0
142
1
143
1
 70
688
 72
1
 73
1
 74
5
 75
16
 76
0
 77
2
 78
300
147
1
148
0
149
0
100
AcDbLayout
  1
Layout2
 71
2
 10
-20
 20
-7.5
 11
277
 21
202.5
 12
0
 22
0
 32
0
 13
0
 23
0
 33
0
 14
25.699999999999992
 24
19.5
 34
0
 15
231.3
 25
175.5
 35
0
 16
1
 26
0
 36
0
 17
0
 27
1
 37
0
146
0
 76
0
330
D6
1001
ACAD_PSEXT
1000
None
1000
None
1000
Not applicable
1000
The layout will not be plotted unless a new plotter configuration name is selected.
1070
0
  0
LAYOUT
  5
22
102
{ACAD_XDICTIONARY
360
205
102
}
102
{ACAD_REACTORS
330
1A
102
}
330
1A
100
AcDbPlotSettings
  1

  2
none_device
  4
ISO_A4_(210.00_x_297.00_MM)
  7

 40
7.5
 41
20
 42
7.5
 43
20
 44
210
 45
297
 46
11.54999923706054
 47
-13.65000009536743
 48
0
 49
0
140
0
141
0
142
1
143
8.704084754739808
 70
11952
 72
1
 73
0
 74
0
 75
0
 76
0
 77
2
 78
300
147
0.11488858716080977
148
0
149
0
100
AcDbLayout
  1
Model
 71
0
 10
0
 20
0
 11
12
 21
9
 12
0
 22
0
 32
0
 13
0
 23
0
 33
0
 14
0
 24
0
 34
0
 15
0
 25
0
 35
0
 16
1
 26
0
 36
0
 17
0
 27
1
 37
0
146
0
 76
0
330
1F
1001
ACAD_PSEXT
1000
None
1000
None
1000
Not applicable
1000
The layout will not be plotted unless a new plotter configuration name is selected.
1070
0
  0
MLEADERSTYLE
  5
13B
102
{ACAD_REACTORS
330
12D
102
}
330
12D
100
AcDbMLeaderStyle
179
2
170
2
171
1
172
0
 90
2
 40
0
 41
0
173
1
 91
-1056964608
340
14
 92
-2
290
1
 42
2
291
1
 43
8
  3
Standard
 44
4
300

342
11
174
1
178
1
175
1
176
0
 93
-1056964608
 45
4
292
0
297
0
 46
4
 94
-1056964608
 47
1
 49
1
140
1
293
1
141
0
294
1
177
0
142
1
295
1
296
0
143
3.75
271
0
272
9
273
9
298
0
  0
MLEADERSTYLE
  5
12E
102
{ACAD_REACTORS
330
12D
102
}
330
12D
100
AcDbMLeaderStyle
179
2
170
2
171
1
172
0
 90
2
 40
0
 41
0
173
1
 91
-1056964608
340
14
 92
-2
290
1
 42
2
291
1
 43
8
  3
Standard
 44
4
300

342
11
174
1
178
1
175
1
176
0
 93
-1056964608
 45
4
292
0
297
0
 46
4
 94
-1056964608
 47
1
 49
1
140
1
293
1
141
0
294
1
177
0
142
1
295
0
296
0
143
3.75
271
0
272
9
273
9
298
0
  0
MLINESTYLE
  5
18
102
{ACAD_REACTORS
330
17
102
}
330
17
100
AcDbMlineStyle
  2
STANDARD
 70
0
  3

 62
256
 51
90
 52
90
 71
2
 49
0.5
 62
256
  6
ByLayer
 49
-0.5
 62
256
  6
ByLayer
  0
ACDBPLACEHOLDER
  5
F
102
{ACAD_REACTORS
330
E
102
}
330
E
  0
SCALE
  5
33D
102
{ACAD_REACTORS
330
10C
102
}
330
10C
100
AcDbScale
 70
0
300
1:1_1
140
1
141
1
290
0
  0
SCALE
  5
33E
102
{ACAD_REACTORS
330
10C
102
}
330
10C
100
AcDbScale
 70
0
300
1:100_1
140
1
141
1
290
0
  0
SCALE
  5
10D
102
{ACAD_REACTORS
330
10C
102
}
330
10C
100
AcDbScale
 70
0
300
1:1
140
1
141
1
290
1
  0
SCALE
  5
1BE
102
{ACAD_REACTORS
330
10C
102
}
330
10C
100
AcDbScale
 70
0
300
1:2
140
1
141
2
290
0
  0
SCALE
  5
1BF
102
{ACAD_REACTORS
330
10C
102
}
330
10C
100
AcDbScale
 70
0
300
1:4
140
1
141
4
290
0
  0
SCALE
  5
1C0
102
{ACAD_REACTORS
330
10C
102
}
330
10C
100
AcDbScale
 70
0
300
1:5
140
1
141
5
290
0
  0
SCALE
  5
1C1
102
{ACAD_REACTORS
330
10C
102
}
330
10C
100
AcDbScale
 70
0
300
1:8
140
1
141
8
290
0
  0
SCALE
  5
1C2
102
{ACAD_REACTORS
330
10C
102
}
330
10C
100
AcDbScale
 70
0
300
1:10
140
1
141
10
290
0
  0
SCALE
  5
1C3
102
{ACAD_REACTORS
330
10C
102
}
330
10C
100
AcDbScale
 70
0
300
1:16
140
1
141
16
290
0
  0
SCALE
  5
1C4
102
{ACAD_REACTORS
330
10C
102
}
330
10C
100
AcDbScale
 70
0
300
1:20
140
1
141
20
290
0
  0
SCALE
  5
1C5
102
{ACAD_REACTORS
330
10C
102
}
330
10C
100
AcDbScale
 70
0
300
1:30
140
1
141
30
290
0
  0
SCALE
  5
1C6
102
{ACAD_REACTORS
330
10C
102
}
330
10C
100
AcDbScale
 70
0
300
1:40
140
1
141
40
290
0
  0
SCALE
  5
1C7
102
{ACAD_REACTORS
330
10C
102
}
330
10C
100
AcDbScale
 70
0
300
1:50
140
1
141
50
290
0
  0
SCALE
  5
1C8
102
{ACAD_REACTORS
330
10C
102
}
330
10C
100
AcDbScale
 70
0
300
1:100
140
1
141
100
290
0
  0
SCALE
  5
1C9
102
{ACAD_REACTORS
330
10C
102
}
330
10C
100
AcDbScale
 70
0
300
2:1
140
2
141
1
290
0
  0
SCALE
  5
1CA
102
{ACAD_REACTORS
330
10C
102
}
330
10C
100
AcDbScale
 70
0
300
4:1
140
4
141
1
290
0
  0
SCALE
  5
1CB
102
{ACAD_REACTORS
330
10C
102
}
330
10C
100
AcDbScale
 70
0
300
8:1
140
8
141
1
290
0
  0
SCALE
  5
1CC
102
{ACAD_REACTORS
330
10C
102
}
330
10C
100
AcDbScale
 70
0
300
10:1
140
10
141
1
290
0
  0
SCALE
  5
1CD
102
{ACAD_REACTORS
330
10C
102
}
330
10C
100
AcDbScale
 70
0
300
100:1
140
100
141
1
290
0
  0
TABLESTYLE
  5
7F
102
{ACAD_XDICTIONARY
360
162
102
}
102
{ACAD_REACTORS
330
7E
102
}
330
7E
100
AcDbTableStyle
  3
Standard
 70
0
 71
0
 40
0.06
 41
0.06
280
0
281
0
  7
Standard
140
4.5
170
0
 62
0
 63
0
283
0
 90
5
 91
512
274
-2
284
1
 64
0
275
-2
285
1
 65
0
276
-2
286
1
 66
0
277
-2
287
1
 67
0
278
-2
288
1
 68
0
279
-2
289
1
 69
0
  7
Standard
140
6
170
0
 62
0
 63
0
283
0
 90
5
 91
512
274
-2
284
1
 64
0
275
-2
285
1
 65
0
276
-2
286
1
 66
0
277
-2
287
1
 67
0
278
-2
288
1
 68
0
279
-2
289
1
 69
0
  7
Standard
140
4.5
170
0
 62
0
 63
0
283
0
 90
5
 91
512
274
-2
284
1
 64
0
275
-2
285
1
 65
0
276
-2
286
1
 66
0
277
-2
287
1
 67
0
278
-2
288
1
 68
0
279
-2
289
1
 69
0
  0
DICTIONARYVAR
  5
146
102
{ACAD_REACTORS
330
5E
102
}
330
5E
100
DictionaryVariables
  1
1:1
280
0
  0
DICTIONARYVAR
  5
259
102
{ACAD_REACTORS
330
5E
102
}
330
5E
100
DictionaryVariables
  1
3.500000
280
0
  0
DICTIONARYVAR
  5
25A
102
{ACAD_REACTORS
330
5E
102
}
330
5E
100
DictionaryVariables
  1
acadiso.lin
280
0
  0
DICTIONARYVAR
  5
145
102
{ACAD_REACTORS
330
5E
102
}
330
5E
100
DictionaryVariables
  1
STANDARD
280
0
  0
DICTIONARYVAR
  5
84
102
{ACAD_REACTORS
330
5E
102
}
330
5E
100
DictionaryVariables
  1
STANDARD
280
0
  0
DICTIONARYVAR
  5
227
102
{ACAD_REACTORS
330
5E
102
}
330
5E
100
DictionaryVariables
  1
Metric50
280
0
  0
DICTIONARYVAR
  5
228
102
{ACAD_REACTORS
330
5E
102
}
330
5E
100
DictionaryVariables
  1
Metric50
280
0
  0
DICTIONARYVAR
  5
5F
102
{ACAD_REACTORS
330
5E
102
}
330
5E
100
DictionaryVariables
  1
2
280
0
  0
DICTIONARYVAR
  5
63
102
{ACAD_REACTORS
330
5E
102
}
330
5E
100
DictionaryVariables
  1
1
280
0
  0
DICTIONARYVAR
  5
1AE
102
{ACAD_REACTORS
330
5E
102
}
330
5E
100
DictionaryVariables
  1
0
280
0
  0
DICTIONARYVAR
  5
1AF
102
{ACAD_REACTORS
330
5E
102
}
330
5E
100
DictionaryVariables
  1
0
280
0
  0
DICTIONARY
  5
205
330
22
100
AcDbDictionary
280
1
281
1
  0
DICTIONARY
  5
162
330
7F
100
AcDbDictionary
280
1
281
1
  0
ENDSEC
  0
EOF
